<?xml version="1.0" encoding="UTF-8" standalone="no"?>
<!-- Created with Inkscape (http://www.inkscape.org/) -->

<svg
   version="1.1"
   id="svg2"
   xml:space="preserve"
   width="816"
   height="1056"
   viewBox="0 0 816 1056"
   sodipodi:docname="morisawa-error.svg"
   inkscape:version="1.1.1 (3bf5ae0d25, 2021-09-20, custom)"
   xmlns:inkscape="http://www.inkscape.org/namespaces/inkscape"
   xmlns:sodipodi="http://sodipodi.sourceforge.net/DTD/sodipodi-0.dtd"
   xmlns="http://www.w3.org/2000/svg"
   xmlns:svg="http://www.w3.org/2000/svg"><defs
     id="defs6" /><sodipodi:namedview
     id="namedview4"
     pagecolor="#ffffff"
     bordercolor="#666666"
     borderopacity="1.0"
     inkscape:pageshadow="2"
     inkscape:pageopacity="1"
     inkscape:pagecheckerboard="0"
     showgrid="false"
     inkscape:zoom="0.8466056"
     inkscape:cx="355.53746"
     inkscape:cy="291.75333"
     inkscape:window-width="2228"
     inkscape:window-height="2124"
     inkscape:window-x="4172"
     inkscape:window-y="0"
     inkscape:window-maximized="1"
     inkscape:current-layer="g8"
     inkscape:snap-bbox="true"
     inkscape:snap-page="true" /><g
     id="g8"
     inkscape:groupmode="layer"
     inkscape:label="morisawa-error"
     transform="matrix(1.3333333,0,0,-1.3333333,0,1056)"><rect
       style="fill:#ffffff;stroke:none;stroke-width:2.83465"
       id="rect1017"
       width="612"
       height="792"
       x="0"
       y="-792"
       transform="scale(1,-1)" /><g
       id="g10"
       transform="scale(0.1)"><path
         d="m 1221.23,9046.72 0.38,4.55 0.97,13.69 0.69,14.1 0.25,11.9 0.04,8.77 v 2.93 11.67 l -0.86,35.04 -2.52,45.63 -4.11,44.32 -5.62,42.79 -7.03,41.03 -8.37,39.08 -9.62,36.89 -7.88,25.94 -2.92,8.54 -3.89,10.58 -13.22,31.17 -19.8,39.55 -22.38,37.29 -24.88,34.95 -27.26,32.54 -29.55,30.07 -31.74,27.53 -33.84,24.93 -35.832,22.25 -37.726,19.5 -39.52,16.69 -41.219,13.81 -42.812,10.85 -44.313,7.84 -45.714,4.76 -35.262,1.6 h -11.75 -8.367 l -25.09,-0.76 -32.617,-2.28 -31.77,-3.76 -30.906,-5.24 -30.027,-6.7 -29.137,-8.13 -28.223,-9.56 -27.301,-10.95 -26.363,-12.33 -25.406,-13.71 -24.442,-15.04 -23.457,-16.38 -22.457,-17.68 -21.441,-18.98 -20.418,-20.25 -19.371,-21.5 -18.313,-22.73 -17.242,-23.96 -16.152,-25.15 -15.051,-26.34 -13.93,-27.49 -12.796,-28.65 -11.653,-29.76 -10.4881,-30.88 -9.3086,-31.96 -8.1172,-33.03 -6.9101,-34.09 -5.6836,-35.12 -4.4492,-36.13 -3.1954,-37.14 -1.9296,-38.11 -0.6446,-29.3 v -9.77 -9.34 l 0.6367,-28 1.9102,-36.41 3.1602,-35.46 4.4023,-34.5 5.625,-33.51 6.832,-32.51 8.0274,-31.5 9.207,-30.47 10.3716,-29.42 11.519,-28.36 12.656,-27.28 13.774,-26.17 14.879,-25.07 15.964,-23.93 17.043,-22.78 18.106,-21.62 19.144,-20.43 20.176,-19.24 21.192,-18.03 22.191,-16.79 23.176,-15.55 24.148,-14.28 25.102,-13 26.043,-11.7 26.965,-10.39 27.879,-9.06 28.769,-7.7 29.652,-6.35 30.52,-4.96 31.371,-3.57 32.203,-2.15 24.77,-0.72 h 8.258 13.054 l 39.164,1.84 50.817,5.46 49.257,8.97 47.551,12.39 45.696,15.71 43.687,18.92 41.527,22.05 39.223,25.07 36.766,27.99 34.15,30.82 31.4,33.54 28.48,36.17 25.43,38.69 22.22,41.12 18.86,43.44 12.01,34.12 3.35,11.56 H 887.953 l -1.836,-4.64 -6.187,-13.66 -9.192,-17.29 -10.324,-16.25 -11.422,-15.2 -12.488,-14.13 -13.52,-13.02 -14.515,-11.89 -15.481,-10.74 -16.41,-9.57 -17.301,-8.38 -18.164,-7.14 -18.992,-5.91 -19.781,-4.63 -20.543,-3.34 -21.266,-2.02 -16.465,-0.67 h -5.488 -8.519 l -25.547,1.83 -32.207,5.45 -30.242,8.94 -28.168,12.33 -25.981,15.6 -23.687,18.78 -21.286,21.83 -14.468,18.33 -4.301,6.45 -2.84,4.37 -7.672,13.65 -8.898,19.53 -7.426,21.65 -6.086,24.41 -4.883,27.8 -3.82,31.81 -2.891,36.46 -1.687,31.29 -0.406,10.44 z m -839.011,216.75 0.953,8.79 3.687,26.3 6.067,32.76 7.492,30.43 8.926,28.11 10.359,25.81 11.797,23.5 13.234,21.22 14.684,18.95 16.125,16.67 17.582,14.42 19.035,12.17 20.492,9.94 21.95,7.71 23.418,5.49 24.886,3.29 19.77,1.1 h 6.59 6.812 l 20.438,-1.18 25.82,-3.5 24.359,-5.81 22.891,-8.09 21.402,-10.36 19.899,-12.61 18.375,-14.83 16.836,-17.04 15.277,-19.23 13.703,-21.38 12.113,-23.53 10.504,-25.66 8.879,-27.76 7.239,-29.84 5.578,-31.9 3.16,-25.44 0.746,-8.5 z M 1442.3,9778.53 V 8520 h 326.29 v 677.55 l 1.11,26.04 3.36,32.47 5.6,30.23 7.84,28 10.08,25.76 12.32,23.51 14.56,21.28 16.79,19.04 19.04,16.79 21.28,14.56 23.51,12.32 25.76,10.08 28,7.83 30.23,5.61 32.47,3.36 26.04,1.12 h 8.68 3.15 l 9.47,-0.12 11.92,-0.36 11.59,-0.63 11.64,-0.93 12.08,-1.26 12.91,-1.62 14.1,-2 11.76,-1.79 3.92,-0.62 v 330.95 l -3.01,0.38 -9.08,0.97 -9.47,0.69 -8.6,0.25 -7.1,0.04 h -2.36 -6.93 l -20.79,-1.14 -27.16,-3.4 -26.58,-5.62 -25.93,-7.8 -25.24,-9.94 -24.48,-12.05 -23.69,-14.11 -22.84,-16.15 -21.93,-18.15 -20.99,-20.09 -19.98,-22.02 -18.93,-23.9 -17.82,-25.74 -16.66,-27.55 -15.45,-29.31 -10.86,-23.2 -3.33,-7.85 v 247.05 z m 906.37,0 V 8520 h 326.28 v 677.55 l 1.12,26.04 3.36,32.47 5.6,30.23 7.84,28 10.08,25.76 12.32,23.51 14.55,21.28 16.8,19.04 19.04,16.79 21.27,14.56 23.52,12.32 25.76,10.08 27.99,7.83 30.24,5.61 32.47,3.36 26.04,1.12 h 8.68 3.15 l 9.47,-0.12 11.91,-0.36 11.59,-0.63 11.65,-0.93 12.08,-1.26 12.9,-1.62 14.1,-2 11.77,-1.79 3.92,-0.62 v 330.95 l -3.02,0.38 -9.08,0.97 -9.46,0.69 -8.6,0.25 -7.1,0.04 h -2.36 -6.93 l -20.79,-1.14 -27.17,-3.4 -26.57,-5.62 -25.93,-7.8 -25.24,-9.94 -24.49,-12.05 -23.68,-14.11 -22.84,-16.15 -21.94,-18.15 -20.98,-20.09 -19.98,-22.02 -18.93,-23.9 -17.82,-25.74 -16.66,-27.55 -15.46,-29.31 -10.85,-23.2 -3.34,-7.85 v 247.05 z m 1461.06,20.97 h -8.91 l -26.71,-0.74 -34.72,-2.22 -33.82,-3.66 -32.89,-5.1 -31.96,-6.52 -31.01,-7.92 -30.03,-9.31 -29.05,-10.67 -28.05,-12.02 -27.04,-13.35 -26,-14.66 -24.96,-15.96 -23.89,-17.24 -22.81,-18.5 -21.72,-19.74 -20.61,-20.97 -19.48,-22.18 -18.34,-23.37 -17.18,-24.54 -16,-25.7 -14.82,-26.83 -13.61,-27.96 -12.39,-29.06 -11.16,-30.15 -9.89,-31.22 -8.63,-32.27 -7.35,-33.3 -6.05,-34.31 -4.73,-35.32 -3.4,-36.29 -2.05,-37.26 -0.68,-28.66 v -9.55 -9.6 l 0.68,-28.81 2.05,-37.44 3.41,-36.45 4.73,-35.45 6.05,-34.43 7.35,-33.39 8.64,-32.33 9.91,-31.27 11.17,-30.18 12.41,-29.08 13.63,-27.96 14.85,-26.83 16.04,-25.67 17.22,-24.51 18.38,-23.33 19.53,-22.12 20.67,-20.91 21.78,-19.68 22.89,-18.44 23.97,-17.16 25.05,-15.89 26.1,-14.59 27.14,-13.28 28.17,-11.95 29.18,-10.61 30.17,-9.24 31.16,-7.87 32.12,-6.46 33.07,-5.07 34,-3.63 34.92,-2.19 26.87,-0.74 h 8.95 8.91 l 26.71,0.74 34.74,2.18 33.85,3.64 32.94,5.05 32.01,6.45 31.07,7.84 30.1,9.21 29.13,10.55 28.14,11.89 27.13,13.2 26.1,14.5 25.05,15.77 24,17.04 22.92,18.28 21.83,19.5 20.71,20.7 19.59,21.89 18.45,23.07 17.28,24.22 16.11,25.35 14.92,26.47 13.71,27.56 12.48,28.65 11.24,29.71 9.97,30.75 8.7,31.78 7.41,32.79 6.1,33.78 4.78,34.75 3.42,35.71 2.08,36.65 0.69,28.17 v 9.4 9.86 l -0.68,29.6 -2.01,38.41 -3.34,37.35 -4.66,36.27 -5.95,35.18 -7.25,34.07 -8.53,32.96 -9.79,31.83 -11.04,30.68 -12.28,29.53 -13.52,28.36 -14.73,27.17 -15.93,25.98 -17.12,24.76 -18.3,23.55 -19.47,22.31 -20.62,21.05 -21.77,19.8 -22.89,18.52 -24.01,17.23 -25.11,15.93 -26.21,14.61 -27.28,13.29 -28.35,11.94 -29.41,10.59 -30.45,9.21 -31.48,7.84 -32.5,6.44 -33.5,5.03 -34.5,3.61 -35.47,2.18 -27.33,0.73 z m 2.32,-263.36 h 8.23 l 24.67,-1.87 31.34,-5.52 29.71,-9.08 28.01,-12.52 26.21,-15.85 24.35,-19.07 22.39,-22.19 20.38,-25.19 18.27,-28.08 16.09,-30.88 13.83,-33.54 11.49,-36.12 9.08,-38.57 6.58,-40.93 4,-43.16 1.36,-33.97 v -11.32 -10.82 l -1.41,-32.45 -4.14,-41.44 -6.79,-39.48 -9.33,-37.39 -11.78,-35.16 -14.11,-32.8 -16.37,-30.31 -18.52,-27.69 -20.56,-24.92 -22.51,-22.04 -24.36,-19.01 -26.12,-15.85 -27.76,-12.56 -29.32,-9.14 -30.78,-5.58 -24.09,-1.89 h -8.04 -8.12 l -24.39,1.86 -31.06,5.52 -29.52,9.06 -27.88,12.47 -26.16,15.78 -24.36,18.97 -22.45,22.04 -20.47,25 -18.39,27.84 -16.23,30.57 -13.98,33.17 -11.63,35.66 -9.21,38.04 -6.68,40.31 -4.07,42.44 -1.38,33.35 v 11.12 11.12 l 1.38,33.35 4.07,42.44 6.68,40.3 9.21,38.04 11.63,35.66 13.98,33.18 16.23,30.56 18.39,27.84 20.47,24.99 22.45,22.05 24.36,18.97 26.16,15.78 27.88,12.47 29.52,9.05 31.06,5.52 24.39,1.87 z m 866.62,242.39 V 8520 h 326.28 v 677.55 l 1.12,26.04 3.36,32.47 5.6,30.23 7.83,28 10.09,25.76 12.31,23.51 14.56,21.28 16.8,19.04 19.03,16.79 21.28,14.56 23.52,12.32 25.75,10.08 28,7.83 30.23,5.61 32.48,3.36 26.03,1.12 h 8.68 3.16 l 9.47,-0.12 11.91,-0.36 11.59,-0.63 11.64,-0.93 12.09,-1.26 12.9,-1.62 14.1,-2 11.77,-1.79 3.92,-0.62 v 330.95 l -3.02,0.38 -9.08,0.97 -9.47,0.69 -8.59,0.25 -7.1,0.04 h -2.37 -6.93 l -20.78,-1.14 -27.17,-3.4 -26.58,-5.62 -25.93,-7.8 -25.23,-9.94 -24.49,-12.05 -23.69,-14.11 -22.83,-16.15 -21.94,-18.15 -20.99,-20.09 -19.98,-22.02 -18.92,-23.9 -17.82,-25.74 -16.67,-27.55 -15.45,-29.31 -10.86,-23.2 -3.33,-7.85 v 247.05 z M 0,7920 -546.391,2525.83 -1879.5,7920 v -51.27"
         style="fill:none;stroke:#ff0000;stroke-width:10;stroke-linecap:butt;stroke-linejoin:miter;stroke-miterlimit:10;stroke-dasharray:none;stroke-opacity:1"
         id="path12" /><g
         id="g14"
         transform="scale(10)"><text
           transform="matrix(1,0,0,-1,0,619)"
           style="font-variant:normal;font-weight:bold;font-size:233px;font-family:'Helvetica Neue';-inkscape-font-specification:Helvetica-Bold;writing-mode:lr-tb;fill:#000000;fill-opacity:1;fill-rule:nonzero;stroke:none"
           id="text18"><tspan
             x="0 155.411 246.048 336.685 479.048"
             y="0"
             sodipodi:role="line"
             id="tspan16">Error</tspan></text></g><path
         d="m 6307.07,6453.19 0.19,2.27 0.48,6.84 0.34,7.04 0.13,5.95 0.02,4.39 v 1.46 5.83 l -0.44,17.51 -1.26,22.8 -2.05,22.14 -2.8,21.38 -3.52,20.51 -4.18,19.53 -4.81,18.43 -3.94,12.96 -1.46,4.27 -1.94,5.29 -6.61,15.57 -9.89,19.76 -11.18,18.63 -12.43,17.46 -13.62,16.26 -14.76,15.03 -15.87,13.75 -16.9,12.46 -17.91,11.11 -18.85,9.75 -19.74,8.34 -20.6,6.9 -21.39,5.42 -22.15,3.92 -22.84,2.38 -17.62,0.8 h -5.87 -8.25 l -24.76,-1.52 -31.32,-4.5 -29.56,-7.41 -27.75,-10.24 -25.87,-13.02 -23.93,-15.69 -21.93,-18.32 -19.88,-20.86 -17.76,-23.33 -15.59,-25.73 -13.36,-28.05 -11.06,-30.3 -8.7,-32.48 -6.3,-34.58 -3.82,-36.61 -1.28,-28.92 v -9.64 -9.22 l 1.27,-27.64 3.78,-34.95 6.22,-33 8.61,-30.96 10.94,-28.87 13.21,-26.7 15.41,-24.49 17.56,-22.18 19.65,-19.83 21.67,-17.39 23.65,-14.9 25.55,-12.35 27.41,-9.71 29.19,-7.03 30.92,-4.26 24.45,-1.43 h 8.15 6.52 l 19.57,0.92 25.39,2.72 24.61,4.49 23.76,6.19 22.83,7.85 21.83,9.45 20.75,11.02 19.6,12.53 18.37,13.99 17.07,15.39 15.69,16.76 14.23,18.07 12.71,19.33 11.1,20.55 9.42,21.71 6,17.05 1.67,5.78 h -160.7 l -1.81,-4.59 -6.8,-13.2 -10.86,-15.71 -13,-13.57 -14.99,-11.31 -16.85,-8.96 -18.56,-6.52 -20.15,-3.98 -16.19,-1.35 h -5.4 -4.26 l -12.76,0.92 -16.1,2.71 -15.11,4.47 -14.07,6.16 -12.98,7.8 -11.84,9.37 -10.63,10.91 -7.23,9.15 -2.15,3.23 -1.41,2.18 -3.84,6.82 -4.45,9.76 -3.71,10.82 -3.04,12.2 -2.44,13.89 -1.91,15.9 -1.45,18.22 -0.84,15.63 -0.2,5.22 z m -419.23,108.29 0.92,8.52 4.43,25.39 8.2,29.25 11.07,24.64 13.95,20.07 16.84,15.53 19.75,11.05 22.67,6.6 19.2,2.19 h 6.4 3.41 l 10.21,-0.59 12.9,-1.75 12.17,-2.9 11.44,-4.04 10.69,-5.18 9.95,-6.3 9.18,-7.41 8.41,-8.51 7.64,-9.61 6.84,-10.68 6.05,-11.76 5.25,-12.82 4.44,-13.87 3.62,-14.91 2.79,-15.94 1.58,-12.72 0.37,-4.25 z m 530.11,257.36 V 6190 H 6581 v 338.55 l 0.55,13.01 1.68,16.23 2.8,15.11 3.92,13.99 5.03,12.86 6.15,11.75 7.28,10.64 8.39,9.51 9.51,8.39 10.63,7.27 11.75,6.15 12.87,5.04 13.99,3.92 15.11,2.79 16.22,1.68 13.01,0.56 h 4.34 3.06 l 9.2,-0.24 11.61,-0.77 12.48,-1.44 11.17,-1.62 3.71,-0.58 v 165.37 l -1.5,0.19 -4.54,0.48 -4.73,0.34 -4.3,0.13 -3.54,0.02 h -1.18 -6.86 l -20.57,-2.27 -26.23,-6.7 -24.85,-10.99 -23.24,-15.12 -21.45,-19.11 -19.44,-22.94 -17.23,-26.63 -11.53,-22.44 -3.27,-7.72 v 123.43 z m 453.18,0 V 6190 h 163.05 v 338.55 l 0.56,13.01 1.67,16.23 2.8,15.11 3.92,13.99 5.03,12.86 6.16,11.75 7.27,10.64 8.39,9.51 9.51,8.39 10.64,7.27 11.75,6.15 12.86,5.04 13.99,3.92 15.11,2.79 16.23,1.68 13,0.56 h 4.34 3.07 l 9.2,-0.24 11.61,-0.77 12.48,-1.44 11.16,-1.62 3.72,-0.58 v 165.37 l -1.51,0.19 -4.53,0.48 -4.73,0.34 -4.3,0.13 -3.55,0.02 h -1.18 -6.86 l -20.56,-2.27 -26.24,-6.7 -24.84,-10.99 -23.25,-15.12 -21.44,-19.11 -19.45,-22.94 -17.22,-26.63 -11.53,-22.44 -3.28,-7.72 v 123.43 z m 730.36,10.49 h -8.79 l -26.36,-1.48 -33.33,-4.38 -31.47,-7.22 -29.52,-9.98 -27.53,-12.68 -25.46,-15.3 -23.33,-17.86 -21.15,-20.34 -18.9,-22.76 -16.58,-25.1 -14.21,-27.38 -11.76,-29.58 -9.26,-31.73 -6.69,-33.79 -4.06,-35.78 -1.37,-28.28 v -9.42 -9.48 l 1.37,-28.43 4.06,-35.92 6.7,-33.88 9.27,-31.78 11.78,-29.61 14.23,-27.37 16.62,-25.08 18.94,-22.71 21.21,-20.28 23.41,-17.79 25.56,-15.23 27.64,-12.6 29.65,-9.92 31.62,-7.16 33.51,-4.35 26.51,-1.46 h 8.84 8.79 l 26.37,1.46 33.37,4.34 31.52,7.14 29.6,9.88 27.62,12.53 25.56,15.13 23.44,17.64 21.26,20.09 19.01,22.46 16.68,24.77 14.31,27 11.85,29.15 9.33,31.25 6.75,33.26 4.1,35.21 1.38,27.81 v 9.27 9.73 l -1.34,29.18 -4,36.78 -6.6,34.61 -9.15,32.37 -11.66,30.09 -14.11,27.75 -16.52,25.35 -18.87,22.91 -21.18,20.42 -23.43,17.86 -25.65,15.26 -27.8,12.61 -29.9,9.89 -31.97,7.13 -33.98,4.33 -26.95,1.45 z m 1.15,-131.6 h 4.11 l 12.33,-0.93 15.66,-2.76 14.85,-4.54 13.99,-6.25 13.1,-7.92 12.17,-9.53 11.19,-11.09 10.18,-12.58 9.14,-14.04 8.03,-15.42 6.91,-16.76 5.75,-18.05 4.53,-19.27 3.29,-20.45 2,-21.57 0.68,-16.98 v -5.65 -5.41 l -0.7,-16.21 -2.07,-20.71 -3.4,-19.72 -4.66,-18.68 -5.88,-17.57 -7.06,-16.39 -8.18,-15.15 -9.25,-13.83 -10.28,-12.45 -11.25,-11.02 -12.17,-9.5 -13.05,-7.91 -13.87,-6.28 -14.66,-4.57 -15.37,-2.79 -12.04,-0.94 h -4.02 -4.06 l -12.18,0.93 -15.52,2.76 -14.75,4.52 -13.93,6.24 -13.07,7.88 -12.17,9.48 -11.22,11.01 -10.23,12.49 -9.19,13.91 -8.11,15.27 -6.98,16.58 -5.82,17.82 -4.59,19 -3.34,20.14 -2.04,21.2 -0.69,16.67 v 5.56 5.55 l 0.69,16.67 2.04,21.21 3.34,20.14 4.59,19 5.82,17.82 6.98,16.58 8.11,15.27 9.19,13.91 10.23,12.49 11.22,11.01 12.17,9.48 13.07,7.89 13.93,6.23 14.75,4.52 15.52,2.76 12.18,0.93 z m 433.49,121.11 V 6190 h 163.05 v 338.55 l 0.55,13.01 1.68,16.23 2.8,15.11 3.92,13.99 5.03,12.86 6.15,11.75 7.28,10.64 8.39,9.51 9.51,8.39 10.63,7.27 11.75,6.15 12.87,5.04 13.99,3.92 15.11,2.79 16.22,1.68 13.01,0.56 h 4.34 3.06 l 9.2,-0.24 11.61,-0.77 12.48,-1.44 11.17,-1.62 3.71,-0.58 v 165.37 l -1.5,0.19 -4.54,0.48 -4.73,0.34 -4.3,0.13 -3.54,0.02 h -1.18 -6.86 l -20.57,-2.27 -26.23,-6.7 -24.85,-10.99 -23.24,-15.12 -21.45,-19.11 -19.44,-22.94 -17.23,-26.63 -11.53,-22.44 -3.27,-7.72 v 123.43 z M 0,7920 1756.78,-473.645 1090.67,7920 V 2197.52"
         style="fill:none;stroke:#ff0000;stroke-width:10;stroke-linecap:butt;stroke-linejoin:miter;stroke-miterlimit:10;stroke-dasharray:none;stroke-opacity:1"
         id="path20" /><g
         id="g22"
         transform="scale(10)"><text
           transform="matrix(1,0,0,-1,0,502.5)"
           style="font-variant:normal;font-weight:bold;font-size:116.5px;font-family:'Helvetica Neue';-inkscape-font-specification:Helvetica-Bold;writing-mode:lr-tb;fill:#000000;fill-opacity:1;fill-rule:nonzero;stroke:none"
           id="text26"><tspan
             x="0 77.705498 123.024 168.3425 239.524 284.8425 362.548 407.86649 453.185 524.36652"
             y="0"
             sodipodi:role="line"
             id="tspan24">ErrorError</tspan></text></g><path
         d="m 6103.66,5200.45 0.13,1.52 0.32,4.56 0.24,4.7 0.08,3.97 0.02,2.92 v 0.97 7.69 l -1.14,23.07 -3.24,29.02 -5.13,26.68 -4.81,17.93 -2,5.85 -1.29,3.52 -4.41,10.38 -6.59,13.18 -7.46,12.42 -8.28,11.64 -9.08,10.85 -9.85,10.01 -10.57,9.17 -11.27,8.31 -11.94,7.41 -12.56,6.49 -13.17,5.56 -13.73,4.6 -14.26,3.62 -14.76,2.61 -15.23,1.58 -11.74,0.54 h -3.92 -5.5 l -16.51,-1.01 -20.88,-3 -19.71,-4.94 -18.49,-6.84 -17.25,-8.67 -15.96,-10.47 -14.62,-12.21 -13.25,-13.9 -11.85,-15.56 -10.39,-17.15 -8.9,-18.7 -7.38,-20.2 -5.8,-21.65 -4.2,-23.05 -2.54,-24.41 -0.86,-19.28 v -6.43 -6.14 l 0.85,-18.43 2.52,-23.3 4.15,-22 5.74,-20.64 7.29,-19.25 8.81,-17.8 10.27,-16.32 11.71,-14.79 13.1,-13.22 14.45,-11.6 15.76,-9.94 17.04,-8.22 18.27,-6.48 19.46,-4.68 20.61,-2.85 16.3,-0.95 h 5.44 4.34 l 13.05,0.61 16.93,1.82 16.41,2.99 15.84,4.13 15.21,5.23 14.56,6.3 13.83,7.35 13.07,8.35 12.24,9.33 11.38,10.26 10.46,11.17 9.48,12.05 8.48,12.89 7.4,13.69 6.28,14.48 4,11.36 1.11,3.85 h -107.12 l -1.21,-3.05 -4.53,-8.8 -7.25,-10.48 -8.66,-9.04 -10,-7.54 -11.23,-5.97 -12.38,-4.35 -13.43,-2.65 -10.79,-0.9 h -3.6 -2.84 l -8.51,0.61 -10.72,1.81 -10.08,2.98 -9.38,4.1 -8.66,5.2 -7.89,6.25 -7.09,7.28 -4.82,6.1 -1.43,2.15 -0.95,1.46 -2.56,4.55 -2.96,6.5 -2.47,7.21 -2.03,8.13 -1.63,9.26 -1.27,10.6 -0.96,12.14 -0.57,10.43 -0.13,3.47 z m -279.48,72.21 0.61,5.68 2.96,16.92 5.46,19.5 7.38,16.43 9.3,13.38 11.23,10.36 13.16,7.36 15.11,4.41 12.8,1.46 h 4.27 4.42 l 13.26,-1.56 15.74,-4.64 13.76,-7.65 11.73,-10.61 9.66,-13.54 7.53,-16.38 5.37,-19.19 2.68,-16.43 0.48,-5.5 z m 353.4,171.57 V 5025 h 108.69 v 228.41 l 1.49,16.78 4.48,19.4 7.46,16.41 10.45,13.43 13.43,10.45 16.41,7.46 19.4,4.48 16.78,1.49 h 5.6 2.04 l 6.13,-0.16 7.74,-0.52 8.32,-0.96 7.45,-1.08 2.48,-0.39 v 110.24 l -1.01,0.12 -3.02,0.33 -3.15,0.23 -2.87,0.08 -2.37,0.02 h -0.79 -4.57 l -13.71,-1.52 -17.48,-4.47 -16.57,-7.32 -15.49,-10.08 -14.3,-12.74 -12.96,-15.3 -11.49,-17.75 -7.7,-14.96 -2.18,-5.14 v 82.29 z m 302.12,0 V 5025 h 108.69 v 228.41 l 1.49,16.78 4.48,19.4 7.46,16.41 10.45,13.43 13.43,10.45 16.41,7.46 19.4,4.48 16.78,1.49 h 5.6 2.04 l 6.13,-0.16 7.74,-0.52 8.32,-0.96 7.45,-1.08 2.48,-0.39 v 110.24 l -1.01,0.12 -3.02,0.33 -3.15,0.23 -2.87,0.08 -2.37,0.02 h -0.79 -4.57 l -13.71,-1.52 -17.48,-4.47 -16.56,-7.32 -15.5,-10.08 -14.3,-12.74 -12.96,-15.3 -11.49,-17.75 -7.7,-14.96 -2.18,-5.14 v 82.29 z m 486.91,6.99 h -5.86 l -17.58,-0.99 -22.22,-2.92 -20.98,-4.81 -19.68,-6.65 -18.35,-8.46 -16.98,-10.19 -15.56,-11.91 -14.1,-13.56 -12.59,-15.17 -11.06,-16.74 -9.47,-18.25 -7.84,-19.72 -6.17,-21.15 -4.46,-22.52 -2.71,-23.86 -0.91,-18.85 v -6.28 -6.32 l 0.91,-18.95 2.71,-23.96 4.46,-22.58 6.18,-21.19 7.86,-19.74 9.48,-18.25 11.08,-16.72 12.63,-15.14 14.14,-13.53 15.61,-11.85 17.04,-10.16 18.42,-8.4 19.77,-6.61 21.08,-4.78 22.34,-2.9 17.68,-0.97 h 5.89 5.86 l 17.58,0.97 22.25,2.89 21.01,4.77 19.73,6.58 18.41,8.36 17.05,10.08 15.63,11.76 14.17,13.4 12.67,14.97 11.13,16.52 9.53,17.99 7.9,19.45 6.23,20.83 4.49,22.17 2.74,23.48 0.92,18.53 v 6.19 6.48 l -0.9,19.46 -2.66,24.52 -4.4,23.07 -6.1,21.59 -7.77,20.05 -9.41,18.5 -11.01,16.9 -12.58,15.28 -14.12,13.61 -15.63,11.9 -17.09,10.18 -18.54,8.4 -19.94,6.59 -21.31,4.76 -22.65,2.88 -17.97,0.97 z m 0.76,-87.74 h 2.74 l 8.22,-0.62 10.44,-1.84 9.9,-3.02 9.33,-4.17 8.73,-5.28 8.11,-6.35 7.46,-7.4 6.79,-8.39 6.09,-9.35 5.36,-10.28 4.61,-11.18 3.83,-12.03 3.02,-12.85 2.2,-13.63 1.33,-14.38 0.45,-11.32 v -3.76 -3.61 l -0.47,-10.81 -1.38,-13.8 -2.26,-13.15 -3.11,-12.46 -3.92,-11.71 -4.71,-10.93 -5.45,-10.09 -6.17,-9.22 -6.85,-8.31 -7.5,-7.34 -8.12,-6.33 -8.7,-5.28 -9.25,-4.18 -9.77,-3.05 -10.25,-1.86 -8.02,-0.62 h -2.68 -2.71 l -8.12,0.62 -10.35,1.83 -9.83,3.02 -9.29,4.15 -8.71,5.26 -8.11,6.32 -7.48,7.34 -6.82,8.33 -6.13,9.27 -5.41,10.18 -4.65,11.05 -3.88,11.88 -3.06,12.67 -2.23,13.43 -1.36,14.14 -0.45,11.11 v 3.71 3.7 l 0.45,11.11 1.36,14.14 2.23,13.42 3.06,12.67 3.88,11.88 4.65,11.05 5.41,10.18 6.13,9.27 6.82,8.33 7.48,7.34 8.11,6.31 8.71,5.26 9.29,4.16 9.83,3.01 10.35,1.84 8.12,0.62 z m 289,80.75 V 5025 h 108.68 v 228.41 l 1.5,16.78 4.47,19.4 7.46,16.41 10.45,13.43 13.43,10.45 16.42,7.46 19.39,4.48 16.79,1.49 h 5.59 2.05 l 6.13,-0.16 7.73,-0.52 8.33,-0.96 7.44,-1.08 2.48,-0.39 v 110.24 l -1,0.12 -3.02,0.33 -3.15,0.23 -2.87,0.08 -2.37,0.02 h -0.79 -4.57 l -13.71,-1.52 -17.49,-4.47 -16.56,-7.32 -15.5,-10.08 -14.3,-12.74 -12.96,-15.3 -11.49,-17.75 -7.69,-14.96 -2.19,-5.14 v 82.29 z M 0,7920 2912.86,425.289 2468.78,7920 V 2206.07"
         style="fill:none;stroke:#ff0000;stroke-width:10;stroke-linecap:butt;stroke-linejoin:miter;stroke-miterlimit:10;stroke-dasharray:none;stroke-opacity:1"
         id="path28" /><g
         id="g30"
         transform="scale(10)"><text
           transform="matrix(1,0,0,-1,0,424.833)"
           style="font-variant:normal;font-weight:bold;font-size:77.6667px;font-family:'Helvetica Neue';-inkscape-font-specification:Helvetica-Bold;writing-mode:lr-tb;fill:#000000;fill-opacity:1;fill-rule:nonzero;stroke:none"
           id="text34"><tspan
             x="0 51.803688 82.016037 112.22838 159.68274 189.89508 241.69878 271.9111 302.12347 349.57782 379.79016 431.59384 461.80621 492.01855 539.4729"
             y="0"
             sodipodi:role="line"
             id="tspan32">ErrorErrorError</tspan></text></g><path
         d="m 6001.96,4379.93 0.09,1.13 0.24,3.42 0.17,3.52 0.06,2.97 0.02,2.19 v 0.73 5.77 l -0.85,17.31 -2.43,21.76 -3.85,20.02 -3.6,13.45 -1.49,4.38 -1.92,5.22 -7.31,15.09 -11.8,18.05 -14.2,15.64 -16.38,13.11 -18.38,10.43 -20.17,7.62 -21.77,4.67 -17.38,1.59 h -5.79 -4.13 l -12.38,-0.76 -15.66,-2.25 -14.78,-3.7 -13.87,-5.13 -12.93,-6.5 -11.97,-7.85 -10.96,-9.16 -9.94,-10.43 -8.89,-11.67 -7.79,-12.86 -6.68,-14.03 -5.53,-15.15 -4.35,-16.24 -3.15,-17.29 -1.91,-18.3 -0.64,-14.47 v -4.82 -4.6 l 0.63,-13.82 1.89,-17.48 3.12,-16.5 4.3,-15.48 5.47,-14.43 6.61,-13.36 7.7,-12.24 8.78,-11.09 9.82,-9.91 10.84,-8.7 11.82,-7.45 12.78,-6.17 13.7,-4.86 14.59,-3.51 15.47,-2.13 12.22,-0.72 h 4.07 6.44 l 19.3,1.82 24.19,5.34 22.33,8.65 20.18,11.77 17.72,14.69 14.96,17.42 11.91,19.94 6.89,16.56 1.66,5.7 h -80.36 l -0.9,-2.29 -3.4,-6.6 -5.43,-7.86 -6.5,-6.78 -7.5,-5.65 -8.42,-4.49 -9.28,-3.26 -10.07,-1.99 -8.1,-0.67 h -2.7 -4.14 l -12.42,1.82 -14.59,5.32 -12.41,8.58 -7.9,8.48 -2.11,3.17 -1.43,2.2 -3.42,7.18 -3.38,11.51 -2.17,14.89 -1.06,14.65 -0.18,4.89 z m -209.63,54.15 0.46,4.26 2.22,12.69 4.1,14.63 5.54,12.32 6.98,10.03 8.42,7.76 9.87,5.53 11.34,3.29 9.6,1.1 h 3.21 3.31 l 9.94,-1.17 11.81,-3.47 10.32,-5.74 8.79,-7.96 7.24,-10.14 5.65,-12.29 4.02,-14.39 2.01,-12.32 0.36,-4.13 z m 265.07,128.67 v -314.42 h 81.52 v 171.31 l 1.12,12.59 3.35,14.55 5.6,12.31 7.83,10.07 10.07,7.83 12.31,5.6 14.54,3.36 12.59,1.12 h 4.2 1.53 l 4.6,-0.12 5.8,-0.4 6.25,-0.72 5.58,-0.8 1.86,-0.29 v 82.67 l -0.75,0.09 -2.27,0.25 -2.36,0.18 -2.15,0.06 -1.77,0.01 h -0.59 -3.43 l -10.28,-1.13 -13.12,-3.35 -12.43,-5.5 -11.62,-7.56 -10.72,-9.56 -9.72,-11.47 -8.62,-13.32 -5.77,-11.22 -1.63,-3.85 v 61.71 z m 226.59,0 v -314.42 h 81.52 v 171.31 l 1.12,12.59 3.35,14.55 5.6,12.31 7.83,10.07 10.07,7.83 12.31,5.6 14.54,3.36 12.59,1.12 h 4.2 1.53 l 4.6,-0.12 5.8,-0.4 6.25,-0.72 5.58,-0.8 1.86,-0.29 v 82.67 l -0.75,0.09 -2.27,0.25 -2.36,0.18 -2.15,0.06 -1.77,0.01 h -0.59 -3.43 l -10.28,-1.13 -13.12,-3.35 -12.43,-5.5 -11.62,-7.56 -10.72,-9.56 -9.72,-11.47 -8.62,-13.32 -5.77,-11.22 -1.63,-3.85 v 61.71 z m 365.17,5.25 h -4.39 l -13.18,-0.73 -16.67,-2.2 -15.73,-3.61 -14.77,-4.98 -13.76,-6.34 -12.73,-7.66 -11.67,-8.93 -10.58,-10.16 -9.45,-11.39 -8.29,-12.55 -7.1,-13.69 -5.88,-14.79 -4.63,-15.86 -3.35,-16.9 -2.03,-17.89 -0.68,-14.14 v -4.71 -4.74 l 0.68,-14.21 2.03,-17.96 3.35,-16.94 4.64,-15.89 5.89,-14.81 7.11,-13.69 8.31,-12.53 9.48,-11.36 10.6,-10.14 11.71,-8.9 12.78,-7.61 13.82,-6.3 14.83,-4.96 15.8,-3.59 16.76,-2.17 13.26,-0.73 h 4.42 4.39 l 13.19,0.73 16.68,2.17 15.76,3.57 14.8,4.94 13.81,6.27 12.78,7.56 11.72,8.82 10.63,10.05 9.5,11.23 8.35,12.38 7.15,13.5 5.93,14.59 4.66,15.62 3.37,16.63 2.06,17.6 0.69,13.91 v 4.63 4.87 l -0.67,14.59 -2,18.39 -3.3,17.3 -4.58,16.19 -5.83,15.04 -7.05,13.87 -8.26,12.68 -9.43,11.46 -10.59,10.2 -11.72,8.94 -12.82,7.63 -13.91,6.3 -14.95,4.95 -15.98,3.57 -16.99,2.16 -13.48,0.72 z m 0.58,-65.79 h 4.01 l 12.04,-1.85 14.41,-5.4 12.64,-8.73 10.68,-11.83 8.59,-14.74 6.33,-17.4 3.91,-19.86 1.34,-16.58 v -5.52 -5.29 l -1.39,-15.87 -4.02,-19.21 -6.48,-16.98 -8.71,-14.49 -10.76,-11.73 -12.62,-8.71 -14.26,-5.42 -11.79,-1.86 h -3.92 -3.97 l -11.91,1.84 -14.35,5.38 -12.62,8.68 -10.72,11.75 -8.65,14.59 -6.4,17.2 -3.98,19.57 -1.35,16.29 v 5.43 5.43 l 1.35,16.28 3.98,19.57 6.4,17.2 8.65,14.59 10.72,11.76 12.62,8.68 14.35,5.38 11.91,1.85 z m 216.75,60.54 V 4248.33 H 6948 v 171.31 l 1.12,12.59 3.36,14.55 5.59,12.31 7.84,10.07 10.07,7.83 12.31,5.6 14.54,3.36 12.58,1.12 h 4.2 1.53 l 4.61,-0.12 5.8,-0.4 6.24,-0.72 5.59,-0.8 1.86,-0.29 v 82.67 l -0.76,0.09 -2.27,0.25 -2.36,0.18 -2.14,0.06 -1.77,0.01 h -0.59 -3.43 l -10.29,-1.13 -13.11,-3.35 -12.43,-5.5 -11.62,-7.56 -10.73,-9.56 -9.72,-11.47 -8.61,-13.32 -5.77,-11.22 -1.64,-3.85 v 61.71 z M 0,7920 3685.06,874.762 3352,7920 V 2210.34"
         style="fill:none;stroke:#ff0000;stroke-width:10;stroke-linecap:butt;stroke-linejoin:miter;stroke-miterlimit:10;stroke-dasharray:none;stroke-opacity:1"
         id="path36" /><g
         id="g38"
         transform="scale(10)"><text
           transform="matrix(1,0,0,-1,0,366.583)"
           style="font-variant:normal;font-weight:bold;font-size:58.25px;font-family:'Helvetica Neue';-inkscape-font-specification:Helvetica-Bold;writing-mode:lr-tb;fill:#000000;fill-opacity:1;fill-rule:nonzero;stroke:none"
           id="text42"><tspan
             x="0 38.852749 61.512001 84.171249 119.762 142.42125 181.274 203.93324 226.5925 262.18326 284.8425 323.69525 346.35449 369.01376 404.60449 427.26376 466.11649 488.77576 511.435 547.02576"
             y="0"
             sodipodi:role="line"
             id="tspan40">ErrorErrorErrorError</tspan></text></g><path
         d="m 5941.09,3771.18 0.08,0.91 0.19,2.73 0.14,2.82 0.05,2.38 0.01,1.76 v 0.58 4.62 l -0.68,13.85 -1.94,17.42 -3.09,16.02 -2.89,10.77 -1.19,3.51 -1.54,4.18 -5.85,12.08 -9.45,14.45 -11.36,12.53 -13.11,10.49 -14.71,8.35 -16.15,6.1 -17.43,3.73 -13.91,1.28 h -4.63 -3.31 l -9.91,-0.61 -12.54,-1.8 -11.83,-2.97 -11.11,-4.1 -10.35,-5.21 -9.58,-6.28 -8.78,-7.34 -7.95,-8.35 -7.12,-9.34 -6.24,-10.29 -5.34,-11.24 -4.43,-12.12 -3.48,-13 -2.52,-13.84 -1.53,-14.66 -0.52,-11.57 v -3.86 -3.69 l 0.51,-11.06 1.51,-13.99 2.5,-13.21 3.44,-12.39 4.38,-11.56 5.28,-10.69 6.18,-9.8 7.02,-8.88 7.87,-7.93 8.68,-6.96 9.46,-5.97 10.23,-4.94 10.97,-3.89 11.68,-2.81 12.38,-1.7 9.79,-0.58 h 3.26 5.15 l 15.46,1.46 19.36,4.27 17.87,6.93 16.16,9.42 14.18,11.76 11.98,13.94 9.53,15.96 5.52,13.26 1.33,4.57 h -64.33 l -0.73,-1.84 -2.72,-5.28 -4.35,-6.29 -5.2,-5.43 -6,-4.52 -6.74,-3.59 -7.43,-2.61 -8.07,-1.59 -6.48,-0.54 h -2.16 -3.31 l -9.94,1.45 -11.68,4.26 -9.94,6.87 -6.33,6.79 -1.69,2.53 -1.14,1.77 -2.74,5.75 -2.7,9.21 -1.74,11.92 -0.84,11.72 -0.15,3.92 z m -167.81,43.34 0.37,3.41 1.78,10.16 3.28,11.71 4.43,9.86 5.59,8.04 6.74,6.22 7.91,4.42 9.07,2.64 7.69,0.88 h 2.56 2.66 l 7.95,-0.93 9.45,-2.79 8.26,-4.59 7.04,-6.37 5.8,-8.13 4.52,-9.84 3.22,-11.52 1.61,-9.86 0.29,-3.31 z m 212.02,103.02 v -251.71 h 65.26 v 137.14 l 0.9,10.08 2.68,11.64 4.48,9.86 6.27,8.06 8.06,6.27 9.86,4.48 11.64,2.68 10.08,0.9 h 3.36 2.39 l 7.17,-0.41 8.74,-1.1 2.22,-0.35 v 66.19 l -0.61,0.07 -1.82,0.2 -1.89,0.14 -1.71,0.05 -1.42,0.01 h -0.48 -2.74 l -8.24,-0.91 -10.5,-2.69 -9.95,-4.39 -9.3,-6.05 -8.58,-7.66 -7.78,-9.18 -6.9,-10.66 -4.61,-8.98 -1.32,-3.09 v 49.41 z m 181.27,0 v -251.71 h 65.27 v 137.14 l 0.89,10.08 2.69,11.64 4.47,9.86 6.28,8.06 8.06,6.27 9.85,4.48 11.65,2.68 10.07,0.9 h 3.36 2.39 l 7.17,-0.41 8.74,-1.1 2.22,-0.35 v 66.19 l -0.61,0.07 -1.81,0.2 -1.89,0.14 -1.72,0.05 -1.42,0.01 h -0.47 -2.75 l -8.23,-0.91 -10.51,-2.69 -9.94,-4.39 -9.31,-6.05 -8.58,-7.66 -7.78,-9.18 -6.89,-10.66 -4.62,-8.98 -1.31,-3.09 v 49.41 z m 292.21,4.2 h -3.52 l -10.55,-0.6 -13.34,-1.75 -12.59,-2.89 -11.82,-3.99 -11.01,-5.08 -10.2,-6.12 -9.34,-7.15 -8.46,-8.14 -7.57,-9.11 -6.63,-10.05 -5.69,-10.96 -4.71,-11.84 -3.7,-12.7 -2.68,-13.52 -1.63,-14.32 -0.54,-11.32 v -3.77 -3.8 l 0.54,-11.38 1.63,-14.37 2.68,-13.57 3.71,-12.72 4.71,-11.85 5.7,-10.96 6.65,-10.03 7.59,-9.09 8.49,-8.12 9.37,-7.13 10.23,-6.09 11.06,-5.05 11.87,-3.97 12.65,-2.86 13.42,-1.74 10.61,-0.59 h 3.54 3.52 l 10.55,0.59 13.36,1.73 12.61,2.86 11.85,3.96 11.05,5.01 10.23,6.06 9.38,7.06 8.52,8.04 7.6,8.99 6.68,9.91 5.73,10.81 4.74,11.67 3.73,12.5 2.71,13.32 1.64,14.09 0.55,11.13 v 3.71 3.89 l -0.54,11.69 -1.59,14.72 -2.65,13.85 -3.66,12.96 -4.67,12.05 -5.64,11.1 -6.61,10.15 -7.55,9.18 -8.49,8.16 -9.37,7.16 -10.27,6.11 -11.12,5.04 -11.98,3.96 -12.79,2.86 -13.61,1.73 -10.78,0.58 z m 0.47,-52.67 h 3.21 l 9.64,-1.48 11.54,-4.32 10.11,-6.99 8.56,-9.48 6.87,-11.79 5.07,-13.93 3.13,-15.9 1.07,-13.27 v -4.42 -4.24 l -1.11,-12.7 -3.22,-15.38 -5.18,-13.59 -6.98,-11.6 -8.61,-9.39 -10.1,-6.97 -11.42,-4.34 -9.44,-1.49 h -3.14 -3.18 l -9.53,1.47 -11.49,4.31 -10.1,6.95 -8.58,9.4 -6.92,11.68 -5.12,13.77 -3.18,15.67 -1.09,13.04 v 4.35 4.34 l 1.09,13.03 3.18,15.67 5.12,13.77 6.92,11.68 8.58,9.41 10.1,6.95 11.49,4.31 9.53,1.48 z m 173.32,48.47 v -251.71 h 65.26 v 137.14 l 0.9,10.08 2.68,11.64 4.48,9.86 6.27,8.06 8.06,6.27 9.86,4.48 11.64,2.68 10.08,0.9 h 3.36 2.39 l 7.17,-0.41 8.74,-1.1 2.22,-0.35 v 66.19 l -0.61,0.07 -1.82,0.2 -1.89,0.14 -1.72,0.05 -1.41,0.01 h -0.48 -2.74 l -8.24,-0.91 -10.5,-2.69 -9.95,-4.39 -9.3,-6.05 -8.58,-7.66 -7.78,-9.18 -6.9,-10.66 -4.62,-8.98 -1.31,-3.09 v 49.41 z M 0,7920 4264.89,1144.32 3998.26,7920 V 2212.91"
         style="fill:none;stroke:#ff0000;stroke-width:10;stroke-linecap:butt;stroke-linejoin:miter;stroke-miterlimit:10;stroke-dasharray:none;stroke-opacity:1"
         id="path44" /><g
         id="g46"
         transform="scale(10)"><text
           transform="matrix(1,0,0,-1,0,319.983)"
           style="font-variant:normal;font-weight:bold;font-size:46.6px;font-family:'Helvetica Neue';-inkscape-font-specification:Helvetica-Bold;writing-mode:lr-tb;fill:#000000;fill-opacity:1;fill-rule:nonzero;stroke:none"
           id="text50"><tspan
             x="0 31.082199 49.209599 67.336998 95.809601 113.937 145.0192 163.14661 181.274 209.7466 227.87399 258.95621 277.08359 295.211 323.68359 341.811 372.89319 391.0206 409.14801 437.62061 455.74799 486.8302 504.95761 523.08502 551.55762"
             y="0"
             sodipodi:role="line"
             id="tspan48">ErrorErrorErrorErrorError</tspan></text></g><path
         d="m 5900.26,3287.57 0.06,0.75 0.16,2.28 0.12,2.35 0.04,1.98 0.01,1.46 v 0.49 3.84 l -0.56,11.53 -1.63,14.52 -2.56,13.34 -2.41,8.97 -0.99,2.92 -1.28,3.48 -4.87,10.06 -7.87,12.03 -9.46,10.43 -10.93,8.73 -12.25,6.96 -13.45,5.08 -14.51,3.11 -11.59,1.06 h -3.86 -5.36 l -16.08,-2.01 -19.1,-5.88 -16.6,-9.57 -13.93,-13.06 -11.12,-16.35 -8.14,-19.45 -5,-22.35 -1.7,-18.8 v -6.26 -5.99 l 1.69,-17.95 4.94,-21.32 8.05,-18.52 10.99,-15.55 13.77,-12.41 16.4,-9.08 18.87,-5.58 15.87,-1.9 h 5.3 4.29 l 12.87,1.22 16.12,3.55 14.89,5.77 13.45,7.85 11.81,9.79 9.98,11.61 7.94,13.29 4.59,11.04 1.1,3.8 h -53.57 l -1.18,-2.97 -5.31,-8.19 -9.33,-8.29 -11.8,-5.17 -10.44,-1.77 h -3.48 -2.76 l -8.28,1.21 -9.72,3.54 -8.27,5.72 -5.26,5.65 -1.41,2.12 -0.96,1.46 -2.28,4.79 -2.25,7.68 -1.45,9.93 -0.7,9.76 -0.12,3.27 z m -139.75,36.09 0.31,2.84 1.48,8.46 2.73,9.75 3.69,8.22 4.65,6.69 5.61,5.18 6.59,3.68 7.56,2.2 6.4,0.73 h 2.14 2.21 l 6.62,-0.78 7.88,-2.31 6.87,-3.83 5.87,-5.31 4.83,-6.76 3.76,-8.2 2.69,-9.59 1.34,-8.22 0.24,-2.75 z m 176.71,85.78 v -209.61 h 54.34 v 114.21 l 0.75,8.39 2.24,9.7 3.73,8.2 5.22,6.72 6.71,5.22 8.21,3.73 9.7,2.24 8.39,0.75 h 2.8 1.99 l 5.97,-0.35 7.28,-0.92 1.84,-0.29 v 55.12 l -0.78,0.1 -2.81,0.24 -2.25,0.05 h -0.75 -2.29 l -6.86,-0.76 -8.74,-2.23 -8.28,-3.66 -7.75,-5.04 -7.16,-6.37 -6.48,-7.65 -5.74,-8.87 -3.85,-7.49 -1.09,-2.57 v 41.14 z m 151.06,0 v -209.61 h 54.34 v 114.21 l 0.75,8.39 2.24,9.7 3.73,8.2 5.22,6.72 6.71,5.22 8.21,3.73 9.7,2.24 8.39,0.75 h 2.8 1.99 l 5.97,-0.35 7.28,-0.92 1.84,-0.29 v 55.12 l -0.78,0.1 -2.81,0.24 -2.25,0.05 h -0.75 -2.29 l -6.86,-0.76 -8.75,-2.23 -8.28,-3.66 -7.75,-5.04 -7.15,-6.37 -6.48,-7.65 -5.74,-8.87 -3.85,-7.49 -1.09,-2.57 v 41.14 z m 243.45,3.5 h -5.71 l -17.12,-1.95 -20.33,-5.74 -17.66,-9.32 -14.83,-12.73 -11.82,-15.96 -8.66,-18.99 -5.31,-21.83 -1.81,-18.37 v -6.12 -6.16 l 1.81,-18.45 5.32,-21.89 8.67,-19 11.85,-15.92 14.87,-12.69 17.74,-9.28 20.42,-5.7 17.22,-1.93 h 5.74 5.7 l 17.14,1.93 20.37,5.68 17.72,9.21 14.9,12.58 11.9,15.74 8.72,18.72 5.36,21.5 1.83,18.07 v 6.02 6.31 l -1.78,18.93 -5.25,22.33 -8.59,19.27 -11.8,16.09 -14.88,12.76 -17.81,9.29 -20.62,5.68 -17.48,1.92 z m 0.39,-43.86 h 2.67 l 8.03,-1.23 9.61,-3.6 8.42,-5.81 7.12,-7.89 5.73,-9.82 4.21,-11.61 2.61,-13.24 0.89,-11.05 v -3.69 -3.52 l -0.92,-10.58 -2.69,-12.81 -4.31,-11.32 -5.81,-9.66 -7.18,-7.82 -8.4,-5.8 -9.51,-3.62 -7.86,-1.24 h -2.61 -2.65 l -7.94,1.23 -9.56,3.58 -8.42,5.79 -7.14,7.84 -5.77,9.72 -4.27,11.47 -2.64,13.05 -0.91,10.85 v 3.63 3.61 l 0.91,10.86 2.64,13.05 4.27,11.46 5.77,9.73 7.14,7.84 8.42,5.79 9.56,3.58 7.94,1.23 z m 144.49,40.36 v -209.61 h 54.34 v 114.21 l 0.75,8.39 2.23,9.7 3.73,8.2 5.23,6.72 6.71,5.22 8.21,3.73 9.7,2.24 8.39,0.75 h 2.8 1.99 l 5.97,-0.35 7.27,-0.92 1.85,-0.29 v 55.12 l -0.78,0.1 -2.81,0.24 -2.26,0.05 h -0.75 -2.29 l -6.85,-0.76 -8.75,-2.23 -8.28,-3.66 -7.75,-5.04 -7.15,-6.37 -6.48,-7.65 -5.74,-8.87 -3.85,-7.49 -1.09,-2.57 v 41.14 z M 0,7920 4729.09,1324.22 4507.06,7920 V 2214.6"
         style="fill:none;stroke:#ff0000;stroke-width:10;stroke-linecap:butt;stroke-linejoin:miter;stroke-miterlimit:10;stroke-dasharray:none;stroke-opacity:1"
         id="path52" /><g
         id="g54"
         transform="scale(10)"><text
           transform="matrix(1,0,0,-1,0,281.15)"
           style="font-variant:normal;font-weight:bold;font-size:38.8333px;font-family:'Helvetica Neue';-inkscape-font-specification:Helvetica-Bold;writing-mode:lr-tb;fill:#000000;fill-opacity:1;fill-rule:nonzero;stroke:none"
           id="text58"><tspan
             x="0 25.901812 41.007965 56.114117 79.841263 94.947418 120.84923 135.95538 151.06154 174.78868 189.89484 215.79665 230.9028 246.00896 269.73611 284.84225 310.74408 325.85022 340.95636 364.68353 379.78967 405.6915 420.79764 435.90378 459.63095 474.73709 500.63892 515.74506 530.8512 554.57837"
             y="0"
             sodipodi:role="line"
             id="tspan56">ErrorErrorErrorErrorErrorError</tspan></text></g><path
         d="m 5871.44,2886.8 0.05,0.65 0.14,1.95 0.09,2.02 0.04,1.7 0.01,1.26 v 0.42 3.29 l -0.49,9.9 -1.39,12.45 -2.2,11.45 -2.06,7.7 -0.86,2.5 -1.1,2.99 -4.18,8.63 -6.75,10.33 -8.12,8.96 -9.37,7.5 -10.52,5.96 -11.54,4.36 -12.45,2.68 -9.94,0.91 h -3.32 -4.6 l -13.8,-1.73 -16.4,-5.05 -14.25,-8.21 -11.96,-11.21 -9.54,-14.03 -6.99,-16.7 -4.29,-19.18 -1.46,-16.13 v -5.37 -5.14 l 1.44,-15.41 4.25,-18.3 6.9,-15.9 9.43,-13.35 11.83,-10.65 14.07,-7.79 16.2,-4.79 13.63,-1.63 h 4.54 3.68 l 11.05,1.05 13.84,3.05 12.77,4.95 11.55,6.74 10.13,8.4 8.56,9.96 6.82,11.41 3.94,9.48 0.95,3.26 h -45.97 l -1.01,-2.55 -4.57,-7.04 -8.01,-7.11 -10.12,-4.43 -8.96,-1.53 h -2.99 -2.37 l -7.11,1.04 -8.34,3.05 -7.1,4.91 -4.51,4.85 -1.21,1.81 -0.82,1.26 -1.96,4.11 -1.93,6.58 -1.25,8.52 -0.6,8.39 -0.11,2.8 z m -119.94,30.98 0.26,2.44 1.27,7.26 2.35,8.37 3.16,7.04 4,5.75 4.81,4.44 5.65,3.15 6.48,1.89 5.5,0.63 h 1.83 1.9 l 5.69,-0.67 6.76,-1.99 5.9,-3.28 5.03,-4.55 4.14,-5.8 3.23,-7.03 2.31,-8.24 1.15,-7.05 0.21,-2.36 z m 151.41,73.63 V 2811.5 h 46.64 v 98.02 l 0.64,7.21 1.92,8.32 3.21,7.04 4.48,5.76 5.76,4.48 7.05,3.2 8.32,1.92 7.2,0.64 h 2.41 0.87 l 2.63,-0.07 3.32,-0.22 3.57,-0.41 3.2,-0.46 1.06,-0.16 v 47.31 l -0.66,0.08 -2.41,0.2 -1.94,0.05 h -0.64 -1.97 l -5.88,-0.66 -7.51,-1.91 -7.11,-3.15 -6.65,-4.32 -6.14,-5.47 -5.56,-6.56 -4.93,-7.62 -3.3,-6.42 -0.94,-2.21 v 35.32 z m 129.48,0 V 2811.5 h 46.64 v 98.02 l 0.64,7.21 1.92,8.32 3.21,7.04 4.48,5.76 5.76,4.48 7.05,3.2 8.32,1.92 7.2,0.64 h 2.41 0.87 l 2.63,-0.07 3.32,-0.22 3.57,-0.41 3.2,-0.46 1.06,-0.16 v 47.31 l -0.66,0.08 -2.41,0.2 -1.94,0.05 h -0.64 -1.97 l -5.88,-0.66 -7.51,-1.91 -7.11,-3.15 -6.65,-4.32 -6.14,-5.47 -5.56,-6.56 -4.93,-7.62 -3.3,-6.42 -0.94,-2.21 v 35.32 z m 208.78,3 h -4.9 l -14.7,-1.68 -17.44,-4.92 -15.16,-8.01 -12.73,-10.92 -10.15,-13.7 -7.43,-16.29 -4.57,-18.74 -1.55,-15.77 v -5.25 -5.29 l 1.55,-15.84 4.57,-18.79 7.45,-16.3 10.17,-13.67 12.77,-10.89 15.22,-7.96 17.53,-4.89 14.77,-1.66 h 4.93 4.89 l 14.71,1.66 17.49,4.87 15.21,7.91 12.79,10.79 10.21,13.51 7.48,16.06 4.6,18.46 1.57,15.51 v 5.17 5.42 l -1.53,16.24 -4.51,19.16 -7.37,16.54 -10.12,13.82 -12.76,10.95 -15.29,7.97 -17.71,4.87 -15,1.66 z m 0.33,-37.64 h 2.29 l 6.89,-1.06 8.25,-3.09 7.23,-4.99 6.11,-6.78 4.91,-8.43 3.62,-9.96 2.24,-11.37 0.77,-9.48 v -3.16 -3.02 l -0.79,-9.09 -2.31,-10.98 -3.7,-9.72 -4.98,-8.29 -6.16,-6.71 -7.22,-4.99 -8.16,-3.1 -6.75,-1.07 h -2.24 -2.28 l -6.81,1.06 -8.21,3.08 -7.22,4.96 -6.13,6.73 -4.96,8.35 -3.66,9.84 -2.27,11.2 -0.78,9.32 v 3.11 3.1 l 0.78,9.32 2.27,11.19 3.66,9.84 4.96,8.35 6.13,6.73 7.22,4.97 8.21,3.08 6.81,1.06 z m 123.75,34.64 V 2811.5 h 46.64 v 98.02 l 0.64,7.21 1.92,8.32 3.2,7.04 4.49,5.76 5.76,4.48 7.04,3.2 8.33,1.92 7.2,0.64 h 2.4 0.88 l 2.63,-0.07 3.32,-0.22 3.57,-0.41 3.19,-0.46 1.07,-0.16 v 47.31 l -0.67,0.08 -2.41,0.2 -1.93,0.05 h -0.65 -1.96 l -5.89,-0.66 -7.5,-1.91 -7.11,-3.15 -6.66,-4.32 -6.13,-5.47 -5.57,-6.56 -4.92,-7.62 -3.31,-6.42 -0.93,-2.21 v 35.32 z M 0,7920 5116.16,1452.47 4925.59,7920 V 2215.81"
         style="fill:none;stroke:#ff0000;stroke-width:10;stroke-linecap:butt;stroke-linejoin:miter;stroke-miterlimit:10;stroke-dasharray:none;stroke-opacity:1"
         id="path60" /><g
         id="g62"
         transform="scale(10)"><text
           transform="matrix(1,0,0,-1,0,247.864)"
           style="font-variant:normal;font-weight:bold;font-size:33.2857px;font-family:'Helvetica Neue';-inkscape-font-specification:Helvetica-Bold;writing-mode:lr-tb;fill:#000000;fill-opacity:1;fill-rule:nonzero;stroke:none"
           id="text66"><tspan
             x="0 22.201561 35.1497 48.097836 68.435402 81.383537 103.5851 116.53323 129.48137 149.81894 162.76707 184.96863 197.91678 210.86491 231.20247 244.1506 266.35217 279.30032 292.24844 312.586 325.53415 347.73572 360.68384 373.63199 393.96954 406.91769 429.11923 442.06738 455.01553 475.35309 488.30121 510.50278 523.45093 536.39905 556.73663"
             y="0"
             sodipodi:role="line"
             id="tspan64">ErrorErrorErrorErrorErrorErrorError</tspan></text></g><path
         d="m 5849.8,2544.61 0.08,0.88 0.18,3.17 0.04,2.22 v 0.73 2.89 l -0.42,8.68 -1.23,10.91 -1.93,10.04 -1.81,6.74 -0.75,2.2 -0.96,2.61 -3.66,7.57 -5.91,9.04 -7.12,7.85 -8.21,6.57 -9.21,5.23 -10.12,3.81 -10.91,2.35 -8.72,0.79 h -2.9 -4.03 l -12.09,-1.5 -14.37,-4.43 -12.48,-7.2 -10.48,-9.81 -8.36,-12.31 -6.12,-14.62 -3.76,-16.81 -1.28,-14.14 v -4.71 -4.5 l 1.27,-13.49 3.72,-16.03 6.05,-13.93 8.26,-11.7 10.36,-9.33 12.33,-6.83 14.19,-4.2 11.94,-1.42 h 3.98 3.22 l 9.68,0.91 12.13,2.68 11.2,4.34 10.11,5.9 8.89,7.37 7.5,8.73 5.97,10 3.45,8.3 0.83,2.86 h -40.28 l -0.89,-2.23 -4,-6.18 -7.01,-6.23 -8.88,-3.88 -7.84,-1.34 h -2.61 -2.08 l -6.23,0.91 -7.32,2.67 -6.22,4.3 -3.95,4.25 -1.06,1.59 -0.72,1.1 -1.72,3.6 -1.69,5.77 -1.09,7.47 -0.53,7.34 -0.1,2.45 z m -105.07,27.14 0.43,4 2.96,11.84 6.27,11.2 9.17,6.67 9.08,2.2 h 3.02 1.66 l 4.99,-0.59 5.92,-1.74 5.18,-2.87 4.41,-4 3.63,-5.08 2.82,-6.16 2.02,-7.22 1.01,-6.18 0.18,-2.07 z m 132.45,64.52 v -157.63 h 40.86 v 85.89 l 0.55,6.31 1.69,7.29 2.8,6.16 3.93,5.05 5.05,3.93 6.17,2.8 7.29,1.68 6.32,0.57 h 2.1 0.77 l 2.3,-0.06 2.91,-0.19 3.13,-0.36 2.8,-0.41 0.94,-0.14 v 41.44 l -0.59,0.07 -2.11,0.19 -1.7,0.03 h -0.56 -3.37 l -10.08,-2.25 -12.06,-6.53 -10.25,-10.54 -6.45,-10.5 -1.58,-3.74 v 30.94 z m 113.29,0 v -157.63 h 40.86 v 85.89 l 0.56,6.31 1.68,7.29 2.81,6.16 3.92,5.05 5.05,3.93 6.17,2.8 7.3,1.68 6.31,0.57 h 2.1 0.77 l 2.3,-0.06 2.91,-0.19 3.13,-0.36 2.8,-0.41 0.94,-0.14 v 41.44 l -0.58,0.07 -2.12,0.19 -1.69,0.03 h -0.56 -3.37 l -10.09,-2.25 -12.06,-6.53 -10.25,-10.54 -6.45,-10.5 -1.58,-3.74 v 30.94 z m 182.76,2.62 h -4.29 l -12.87,-1.46 -15.29,-4.32 -13.28,-7.01 -11.15,-9.57 -8.89,-12 -6.51,-14.28 -4,-16.42 -1.36,-13.81 v -4.61 -4.63 l 1.36,-13.87 4,-16.46 6.52,-14.29 8.92,-11.98 11.18,-9.54 13.34,-6.98 15.36,-4.28 12.94,-1.45 h 4.32 4.29 l 12.88,1.45 15.32,4.26 13.33,6.94 11.2,9.46 8.95,11.84 6.56,14.08 4.03,16.17 1.37,13.59 v 4.53 4.75 l -1.33,14.22 -3.95,16.79 -6.47,14.49 -8.87,12.1 -11.18,9.6 -13.4,6.98 -15.51,4.27 -13.14,1.44 z m 0.3,-32.98 h 2.01 l 6.03,-0.93 7.23,-2.7 6.33,-4.38 5.35,-5.93 4.31,-7.38 3.17,-8.73 1.96,-9.95 0.67,-8.31 v -2.77 -2.65 l -0.7,-7.96 -2.01,-9.63 -3.25,-8.51 -4.36,-7.27 -5.4,-5.88 -6.32,-4.37 -7.15,-2.72 -5.9,-0.93 h -1.97 -1.99 l -5.98,0.92 -7.19,2.7 -6.33,4.35 -5.37,5.89 -4.34,7.32 -3.21,8.62 -1.99,9.81 -0.68,8.17 v 2.72 2.72 l 0.68,8.16 1.99,9.82 3.21,8.62 4.34,7.31 5.37,5.89 6.33,4.36 7.19,2.69 5.98,0.93 z m 108.18,30.36 v -157.63 h 40.86 v 85.89 l 0.56,6.31 1.69,7.29 2.8,6.16 3.93,5.05 5.05,3.93 6.17,2.8 7.29,1.68 6.32,0.57 h 2.1 0.77 l 2.3,-0.06 2.91,-0.19 3.13,-0.36 2.8,-0.41 0.93,-0.14 v 41.44 l -0.58,0.07 -2.11,0.19 -1.7,0.03 h -0.56 -3.37 l -10.09,-2.25 -12.05,-6.53 -10.25,-10.54 -6.45,-10.5 -1.59,-3.74 v 30.94 z M 0,7920 5448.07,1548.68 5281.11,7920 V 2216.73"
         style="fill:none;stroke:#ff0000;stroke-width:10;stroke-linecap:butt;stroke-linejoin:miter;stroke-miterlimit:10;stroke-dasharray:none;stroke-opacity:1"
         id="path68" /><g
         id="g70"
         transform="scale(10)"><text
           transform="matrix(1,0,0,-1,0,218.739)"
           style="font-variant:normal;font-weight:bold;font-size:29.125px;font-family:'Helvetica Neue';-inkscape-font-specification:Helvetica-Bold;writing-mode:lr-tb;fill:#000000;fill-opacity:1;fill-rule:nonzero;stroke:none"
           id="text74"><tspan
             x="0 19.426374 30.756001 42.085625 59.881001 71.210625 90.637001 101.96662 113.29625 131.09163 142.42125 161.84763 173.17725 184.50688 202.30225 213.63188 233.05824 244.38788 255.7175 273.51288 284.8425 304.26886 315.59851 326.92813 344.72351 356.05313 375.47949 386.80911 398.13876 415.93411 427.26376 446.69012 458.01974 469.34937 487.14474 498.47437 517.90076 529.23035 540.56 558.35535"
             y="0"
             sodipodi:role="line"
             id="tspan72">ErrorErrorErrorErrorErrorErrorErrorError</tspan></text></g><path
         d="m 5832.19,2245.77 0.06,0.77 0.16,2.81 0.03,1.95 v 0.66 4.97 l -1.46,14.92 -3.12,14.34 -0.84,2.45 -0.86,2.32 -3.23,6.69 -5.24,8.01 -6.3,6.93 -7.26,5.82 -8.16,4.63 -8.94,3.37 -9.66,2.07 -7.71,0.71 h -2.57 -3.57 l -10.7,-1.33 -12.7,-3.92 -11.05,-6.37 -9.27,-8.69 -7.4,-10.88 -5.41,-12.94 -3.33,-14.87 -1.13,-12.51 v -4.16 -3.98 l 1.12,-11.95 3.29,-14.18 5.35,-12.33 7.31,-10.35 9.17,-8.26 10.91,-6.04 12.55,-3.71 10.56,-1.26 h 3.52 2.86 l 8.56,0.81 10.73,2.36 9.91,3.84 8.95,5.22 7.86,6.52 6.63,7.72 5.28,8.85 3.07,7.35 0.73,2.53 h -35.64 l -0.78,-1.98 -3.54,-5.45 -6.21,-5.53 -7.85,-3.43 -6.95,-1.19 h -2.31 -1.84 l -5.5,0.81 -6.48,2.36 -5.5,3.8 -3.51,3.77 -0.94,1.4 -0.63,0.98 -1.51,3.19 -1.5,5.11 -0.96,6.6 -0.47,6.5 -0.08,2.17 z m -92.99,24.02 0.39,3.53 2.62,10.47 5.55,9.92 8.11,5.89 8.03,1.95 h 2.68 2.78 l 8.34,-2.06 8.48,-6.08 5.71,-9.95 2.54,-10.22 0.3,-3.45 z m 117.85,57.07 v -139.47 h 36.17 v 77.6 l 1.98,10.42 5.96,9.93 9.93,5.96 10.42,1.99 h 3.48 0.68 l 2.04,-0.06 2.57,-0.17 2.77,-0.32 2.47,-0.36 0.83,-0.13 v 36.68 l -0.52,0.06 -1.87,0.17 -1.5,0.03 h -0.5 -2.98 l -8.93,-1.99 -10.66,-5.79 -9.07,-9.33 -5.69,-9.29 -1.41,-3.3 v 27.37 z m 100.71,0 v -139.47 h 36.17 v 77.6 l 1.98,10.42 5.96,9.93 9.92,5.96 10.43,1.99 h 3.48 0.68 l 2.03,-0.06 2.58,-0.17 2.76,-0.32 2.48,-0.36 0.82,-0.13 v 36.68 l -0.51,0.06 -1.88,0.17 -1.5,0.03 h -0.5 -2.97 l -8.93,-1.99 -10.66,-5.79 -9.07,-9.33 -5.7,-9.29 -1.4,-3.3 v 27.37 z m 162.17,2.33 h -3.79 l -11.39,-1.3 -13.53,-3.82 -11.75,-6.2 -9.86,-8.47 -7.87,-10.62 -5.76,-12.64 -3.53,-14.53 -1.2,-12.22 v -4.07 -4.1 l 1.2,-12.28 3.54,-14.56 5.77,-12.64 7.88,-10.59 9.9,-8.45 11.8,-6.17 13.59,-3.79 11.45,-1.28 h 3.82 3.8 l 11.39,1.28 13.56,3.78 11.79,6.13 9.91,8.37 7.92,10.47 5.8,12.46 3.56,14.3 1.22,12.02 v 4.02 4.19 l -1.19,12.59 -3.49,14.86 -5.71,12.82 -7.85,10.71 -9.89,8.49 -11.86,6.18 -13.72,3.78 -11.63,1.28 z m 0.27,-29.19 h 1.78 l 5.34,-0.82 6.39,-2.39 5.61,-3.87 4.73,-5.25 3.81,-6.54 2.81,-7.72 1.73,-8.81 0.6,-7.35 v -2.45 -2.35 l -0.62,-7.04 -1.79,-8.51 -2.86,-7.53 -3.87,-6.43 -4.77,-5.2 -5.59,-3.86 -6.33,-2.41 -5.23,-0.83 h -1.74 -1.76 l -5.29,0.82 -6.36,2.38 -5.59,3.86 -4.76,5.21 -3.84,6.47 -2.83,7.62 -1.77,8.68 -0.6,7.23 v 2.41 2.4 l 0.6,7.23 1.77,8.68 2.83,7.63 3.84,6.47 4.76,5.22 5.59,3.85 6.36,2.38 5.29,0.82 z m 96.44,26.86 v -139.47 h 36.18 v 77.6 l 1.98,10.42 5.95,9.93 9.93,5.96 10.43,1.99 h 3.47 0.68 l 2.04,-0.06 2.58,-0.17 2.76,-0.32 2.48,-0.36 0.82,-0.13 v 36.68 l -0.51,0.06 -1.88,0.17 -1.5,0.03 h -0.5 -2.98 l -8.92,-1.99 -10.67,-5.79 -9.06,-9.33 -5.7,-9.29 -1.4,-3.3 v 27.37 z M 0,7920 5738.54,1624.06 5590.81,7920 V 2217.47"
         style="fill:none;stroke:#ff0000;stroke-width:10;stroke-linecap:butt;stroke-linejoin:miter;stroke-miterlimit:10;stroke-dasharray:none;stroke-opacity:1"
         id="path76" /><g
         id="g78"
         transform="scale(10)"><text
           transform="matrix(1,0,0,-1,0,192.85)"
           style="font-variant:normal;font-weight:bold;font-size:25.8889px;font-family:'Helvetica Neue';-inkscape-font-specification:Helvetica-Bold;writing-mode:lr-tb;fill:#000000;fill-opacity:1;fill-rule:nonzero;stroke:none"
           id="text82"><tspan
             x="0 17.267897 27.338678 37.409462 53.227577 63.298359 80.566254 90.637039 100.70782 116.52594 126.59672 143.86462 153.93539 164.00618 179.8243 189.89508 207.16298 217.23376 227.30453 243.12267 253.19344 270.46133 280.53214 290.60291 306.42102 316.49179 333.7597 343.83047 353.90128 369.71939 379.79016 397.05804 407.12885 417.19962 433.01773 443.08853 460.35641 470.42722 480.49799 496.3161 506.38687 523.65479 533.72559 543.79633 559.61444"
             y="0"
             sodipodi:role="line"
             id="tspan80">ErrorErrorErrorErrorErrorErrorErrorErrorError</tspan></text></g><path
         d="m 5818.58,1981 0.06,0.7 0.14,2.53 0.03,1.76 v 0.59 4.47 l -1.31,13.42 -2.81,12.89 -0.75,2.21 -0.77,2.08 -2.91,6.02 -4.71,7.2 -5.66,6.24 -6.54,5.23 -7.33,4.16 -8.05,3.04 -8.68,1.86 -6.93,0.64 h -2.31 -3.21 l -9.63,-1.21 -11.43,-3.52 -9.94,-5.72 -8.34,-7.82 -6.65,-9.79 -4.87,-11.64 -3,-13.37 -1.01,-11.25 v -3.75 -3.58 l 1.01,-10.74 2.95,-12.76 4.82,-11.09 6.58,-9.3 8.24,-7.43 9.82,-5.44 11.29,-3.34 9.5,-1.13 h 3.16 2.57 l 7.7,0.73 9.65,2.13 8.91,3.45 8.05,4.69 7.07,5.87 5.97,6.94 4.75,7.96 2.75,6.61 0.66,2.28 h -32.06 l -0.7,-1.78 -3.18,-4.91 -5.58,-4.96 -7.06,-3.09 -6.25,-1.06 h -2.07 -1.66 l -4.95,0.73 -5.83,2.12 -4.95,3.42 -3.15,3.39 -0.84,1.26 -0.57,0.88 -1.37,2.86 -1.34,4.59 -0.88,5.94 -0.42,5.84 -0.08,1.95 z m -83.63,21.61 0.35,3.19 2.36,9.41 4.99,8.92 7.3,5.29 7.22,1.76 h 2.41 2.5 l 7.5,-1.86 7.63,-5.46 5.14,-8.95 2.28,-9.19 0.28,-3.11 z m 106.1,51.33 V 1928.5 h 32.51 v 69.8 l 1.79,9.37 5.36,8.93 8.93,5.35 9.37,1.79 h 3.13 1.19 l 3.57,-0.2 4.35,-0.55 1.11,-0.17 v 32.98 l -0.47,0.06 -1.68,0.14 -1.35,0.04 h -0.45 -2.68 l -8.03,-1.79 -9.59,-5.21 -8.16,-8.39 -5.13,-8.36 -1.26,-2.97 v 24.62 z m 90.63,0 V 1928.5 h 32.52 v 69.8 l 1.78,9.37 5.36,8.93 8.93,5.35 9.38,1.79 h 3.13 1.18 l 3.58,-0.2 4.35,-0.55 1.11,-0.17 v 32.98 l -0.47,0.06 -1.69,0.14 -1.35,0.04 h -0.45 -2.67 l -8.03,-1.79 -9.59,-5.21 -8.16,-8.39 -5.13,-8.36 -1.26,-2.97 v 24.62 z m 145.92,2.1 h -3.42 l -10.24,-1.18 -12.17,-3.43 -10.57,-5.58 -8.87,-7.62 -7.08,-9.55 -5.18,-11.36 -3.18,-13.07 -1.09,-10.99 v -3.66 -3.69 l 1.09,-11.04 3.18,-13.1 5.19,-11.36 7.1,-9.53 8.9,-7.6 10.62,-5.55 12.22,-3.41 10.3,-1.16 h 3.44 3.41 l 10.25,1.16 12.2,3.39 10.6,5.52 8.91,7.53 7.12,9.42 5.22,11.2 3.21,12.87 1.09,10.82 v 3.61 3.77 l -1.06,11.32 -3.15,13.36 -5.14,11.53 -7.05,9.63 -8.91,7.64 -10.65,5.55 -12.35,3.4 -10.45,1.16 z m 0.24,-26.25 h 1.59 l 4.81,-0.74 5.75,-2.16 5.04,-3.48 4.26,-4.72 3.43,-5.88 2.52,-6.94 1.56,-7.92 0.54,-6.62 v -2.2 -2.11 l -0.56,-6.33 -1.6,-7.66 -2.59,-6.78 -3.47,-5.78 -4.3,-4.68 -5.03,-3.47 -5.68,-2.17 -4.71,-0.74 h -1.56 -1.59 l -4.75,0.73 -5.72,2.15 -5.04,3.46 -4.28,4.7 -3.45,5.82 -2.55,6.86 -1.58,7.8 -0.54,6.5 v 2.17 2.16 l 0.54,6.5 1.58,7.81 2.55,6.86 3.45,5.82 4.28,4.69 5.04,3.46 5.72,2.15 4.75,0.74 z m 86.84,24.15 V 1928.5 h 32.52 v 69.8 l 1.78,9.37 5.36,8.93 8.93,5.35 9.37,1.79 h 3.13 1.19 l 3.57,-0.2 4.36,-0.55 1.1,-0.17 v 32.98 l -0.46,0.06 -1.69,0.14 -1.35,0.04 h -0.45 -2.68 l -8.02,-1.79 -9.59,-5.21 -8.16,-8.39 -5.13,-8.36 -1.26,-2.97 v 24.62 z M 0,7920 5996.84,1684.01 5863.96,7920 V 2218.03"
         style="fill:none;stroke:#ff0000;stroke-width:10;stroke-linecap:butt;stroke-linejoin:miter;stroke-miterlimit:10;stroke-dasharray:none;stroke-opacity:1"
         id="path84" /><g
         id="g86"
         transform="scale(10)"><text
           transform="matrix(1,0,0,-1,0,169.55)"
           style="font-variant:normal;font-weight:bold;font-size:23.3px;font-family:'Helvetica Neue';-inkscape-font-specification:Helvetica-Bold;writing-mode:lr-tb;fill:#000000;fill-opacity:1;fill-rule:nonzero;stroke:none"
           id="text90"><tspan
             x="0 15.5411 24.604799 33.668499 47.9048 56.968498 72.509598 81.573303 90.637001 104.8733 113.937 129.4781 138.54179 147.6055 161.8418 170.9055 186.44659 195.5103 204.57401 218.8103 227.87399 243.4151 252.47881 261.54251 275.77881 284.8425 300.38361 309.4473 318.51099 332.74731 341.811 357.35211 366.4158 375.47949 389.71579 398.77951 414.32059 423.38431 432.448 446.6843 455.74799 471.28909 480.35281 489.4165 503.6528 512.71649 528.25763 537.32129 546.38501 560.62128"
             y="0"
             sodipodi:role="line"
             id="tspan88">ErrorErrorErrorErrorErrorErrorErrorErrorErrorError</tspan></text></g><path
         d="m 5808.15,1743.52 0.05,0.64 0.14,2.3 0.03,1.61 v 0.54 4.09 l -1.2,12.27 -2.58,11.78 -0.69,2.02 -0.7,1.9 -2.66,5.51 -4.31,6.59 -5.18,5.71 -5.98,4.78 -6.7,3.8 -7.36,2.78 -7.94,1.71 -6.34,0.58 h -2.11 -2.94 l -8.8,-1.1 -10.45,-3.22 -9.09,-5.24 -7.63,-7.15 -6.08,-8.95 -4.45,-10.65 -2.74,-12.23 -0.93,-10.29 v -3.42 -3.28 l 0.92,-9.82 2.7,-11.67 4.41,-10.13 6.01,-8.52 7.54,-6.79 8.98,-4.97 10.32,-3.05 8.69,-1.04 h 2.9 2.34 l 7.05,0.67 8.82,1.95 8.15,3.15 7.36,4.3 6.47,5.36 5.46,6.36 4.34,7.27 2.51,6.04 0.61,2.09 h -29.32 l -0.64,-1.63 -2.91,-4.49 -5.1,-4.54 -6.46,-2.82 -5.72,-0.97 h -1.9 -1.51 l -4.53,0.66 -5.33,1.94 -4.53,3.13 -2.88,3.1 -0.77,1.15 -0.52,0.8 -1.24,2.62 -1.23,4.2 -0.8,5.44 -0.39,5.34 -0.07,1.79 z m -76.47,19.75 0.31,2.91 2.16,8.61 4.56,8.15 6.68,4.85 6.6,1.6 h 2.21 2.28 l 6.86,-1.69 6.97,-4.99 4.7,-8.19 2.09,-8.41 0.25,-2.84 z m 96.32,46.95 V 1695.5 h 29.73 v 63.83 l 1.63,8.57 4.9,8.17 8.16,4.89 8.58,1.64 h 2.86 1.08 l 3.27,-0.19 3.98,-0.5 1.01,-0.16 v 30.16 l -0.42,0.05 -1.54,0.14 -1.24,0.03 h -0.41 -2.45 l -7.34,-1.64 -8.77,-4.76 -7.46,-7.68 -4.69,-7.64 -1.15,-2.72 v 22.53 z m 82.39,0 V 1695.5 h 29.74 v 63.83 l 1.62,8.57 4.9,8.17 8.17,4.89 8.57,1.64 h 2.86 1.09 l 3.27,-0.19 3.98,-0.5 1,-0.16 v 30.16 l -0.42,0.05 -1.53,0.14 -1.25,0.03 h -0.41 -2.44 l -7.34,-1.64 -8.78,-4.76 -7.46,-7.68 -4.68,-7.64 -1.15,-2.72 v 22.53 z m 132.94,1.91 h -3.12 l -9.37,-1.07 -11.13,-3.14 -9.66,-5.1 -8.11,-6.97 -6.48,-8.73 -4.73,-10.39 -2.91,-11.95 -0.99,-10.05 v -3.35 -3.37 l 0.99,-10.1 2.91,-11.98 4.75,-10.39 6.48,-8.72 8.15,-6.95 9.7,-5.08 11.18,-3.12 9.42,-1.06 h 3.14 3.12 l 9.38,1.06 11.15,3.1 9.69,5.05 8.16,6.89 6.51,8.61 4.77,10.25 2.94,11.76 1,9.89 v 3.3 3.45 l -0.98,10.36 -2.87,12.21 -4.7,10.55 -6.45,8.81 -8.14,6.98 -9.75,5.09 -11.29,3.1 -9.57,1.06 z m 0.22,-24 h 1.46 l 4.4,-0.68 5.25,-1.97 4.61,-3.18 3.9,-4.32 3.13,-5.37 2.31,-6.36 1.42,-7.24 0.49,-6.05 v -2.02 -1.93 l -0.51,-5.79 -1.47,-7.01 -2.36,-6.19 -3.18,-5.28 -3.92,-4.28 -4.6,-3.17 -5.2,-1.98 -4.3,-0.68 h -1.43 -1.45 l -4.35,0.67 -5.23,1.96 -4.6,3.17 -3.92,4.29 -3.15,5.32 -2.34,6.27 -1.45,7.14 -0.49,5.94 v 1.99 1.98 l 0.49,5.94 1.45,7.14 2.34,6.27 3.15,5.33 3.92,4.28 4.6,3.17 5.23,1.96 4.35,0.68 z m 78.65,22.09 V 1695.5 h 29.74 v 63.83 l 1.63,8.57 4.89,8.17 8.17,4.89 8.57,1.64 h 2.86 1.09 l 3.27,-0.19 3.98,-0.5 1.01,-0.16 v 30.16 l -0.43,0.05 -1.53,0.14 -1.24,0.03 h -0.41 -2.45 l -7.34,-1.64 -8.78,-4.76 -7.45,-7.68 -4.69,-7.64 -1.15,-2.72 v 22.53 z M 0,7920 6229.39,1732.59 6107.87,7920 V 2218.49"
         style="fill:none;stroke:#ff0000;stroke-width:10;stroke-linecap:butt;stroke-linejoin:miter;stroke-miterlimit:10;stroke-dasharray:none;stroke-opacity:1"
         id="path92" /><g
         id="g94"
         transform="scale(10)"><text
           transform="matrix(1,0,0,-1,0,148.369)"
           style="font-variant:normal;font-weight:bold;font-size:21.1818px;font-family:'Helvetica Neue';-inkscape-font-specification:Helvetica-Bold;writing-mode:lr-tb;fill:#000000;fill-opacity:1;fill-rule:nonzero;stroke:none"
           id="text98"><tspan
             x="0 14.128261 22.367981 30.6077 43.549782 51.789501 65.917763 74.157478 82.397202 95.339279 103.579 117.70726 125.94698 134.18671 147.12878 155.3685 169.49677 177.73648 185.97621 198.91829 207.158 221.28627 229.52599 237.7657 250.70778 258.94751 273.07578 281.31549 289.55521 302.49728 310.737 324.86526 333.10498 341.3447 354.28677 362.52652 376.65475 384.8945 393.13422 406.07629 414.31601 428.44427 436.68399 444.92371 457.86578 466.1055 480.23376 488.47348 496.7132 509.6553 517.89502 532.02325 540.263 548.50269 561.44476"
             y="0"
             sodipodi:role="line"
             id="tspan96">ErrorErrorErrorErrorErrorErrorErrorErrorErrorErrorError</tspan></text></g><path
         d="m 5798.54,1527.55 0.05,0.58 0.12,2.11 0.02,1.47 v 0.49 3.74 l -1.09,11.21 -2.34,10.77 -0.63,1.85 -1.25,3.38 -5.77,9.4 -10.19,9.59 -12.85,6.02 -11.23,2.09 h -3.74 -2.69 l -8.04,-1 -9.55,-2.95 -8.31,-4.78 -6.96,-6.54 -5.57,-8.18 -4.07,-9.72 -2.5,-11.18 -0.84,-9.4 v -3.12 -3 l 0.84,-8.97 2.47,-10.66 4.03,-9.27 5.49,-7.78 6.89,-6.2 8.2,-4.54 9.43,-2.79 7.93,-0.95 h 2.65 2.15 l 6.43,0.6 8.07,1.79 7.44,2.88 6.73,3.92 5.91,4.9 4.98,5.81 3.97,6.65 2.3,5.52 0.55,1.9 h -26.78 l -0.58,-1.49 -2.66,-4.1 -4.67,-4.14 -5.9,-2.59 -5.21,-0.89 h -1.74 -1.39 l -4.14,0.61 -4.86,1.78 -4.14,2.86 -2.63,2.82 -0.7,1.06 -0.48,0.73 -1.14,2.4 -1.13,3.84 -0.73,4.96 -0.35,4.88 -0.06,1.63 z m -69.87,18.06 0.28,2.66 1.98,7.86 4.17,7.45 6.1,4.42 6.03,1.47 h 2.02 2.08 l 6.27,-1.55 6.37,-4.56 4.3,-7.48 1.91,-7.68 0.22,-2.59 z m 88.36,42.89 v -104.81 h 27.17 V 1542 l 1.49,7.84 4.47,7.46 7.46,4.47 7.83,1.5 h 2.61 0.99 l 2.99,-0.18 3.64,-0.46 0.93,-0.15 v 27.57 l -0.39,0.05 -1.41,0.12 -1.13,0.03 h -0.37 -2.24 l -6.71,-1.5 -8.01,-4.35 -6.81,-7.01 -4.29,-6.98 -1.05,-2.49 v 20.58 z m 75.52,0 v -104.81 h 27.18 V 1542 l 1.48,7.84 4.48,7.46 7.45,4.47 7.83,1.5 h 2.62 0.99 l 2.99,-0.18 3.64,-0.46 0.92,-0.15 v 27.57 l -0.38,0.05 -1.41,0.12 -1.13,0.03 h -0.37 -2.24 l -6.71,-1.5 -8.01,-4.35 -6.82,-7.01 -4.28,-6.98 -1.05,-2.49 v 20.58 z m 121.72,1.75 h -2.86 l -8.56,-0.98 -10.16,-2.86 -8.83,-4.67 -7.41,-6.36 -5.92,-7.98 -4.33,-9.5 -2.65,-10.92 -0.91,-9.18 v -3.07 -3.07 l 0.91,-9.23 2.66,-10.95 4.33,-9.5 5.93,-7.96 7.43,-6.35 8.87,-4.64 10.21,-2.85 8.61,-0.96 h 2.87 2.85 l 8.57,0.96 10.19,2.84 8.86,4.61 7.45,6.29 5.95,7.87 4.36,9.36 2.68,10.76 0.92,9.03 v 3.01 3.16 l -0.9,9.46 -2.62,11.16 -4.3,9.64 -5.9,8.05 -7.43,6.38 -8.91,4.65 -10.31,2.84 -8.74,0.96 z m 0.19,-21.94 h 1.33 l 4.02,-0.61 4.81,-1.8 4.21,-2.91 3.56,-3.95 2.86,-4.91 2.11,-5.8 1.3,-6.62 0.45,-5.53 v -1.84 -1.76 l -0.46,-5.29 -1.34,-6.41 -2.16,-5.66 -2.9,-4.83 -3.59,-3.91 -4.21,-2.9 -4.75,-1.8 -3.93,-0.62 h -1.31 -1.33 l -3.97,0.61 -4.78,1.79 -4.2,2.9 -3.57,3.92 -2.89,4.86 -2.13,5.73 -1.32,6.52 -0.45,5.43 v 1.81 1.81 l 0.45,5.43 1.32,6.53 2.13,5.73 2.89,4.86 3.57,3.92 4.2,2.89 4.78,1.8 3.97,0.61 z m 72.25,20.19 v -104.81 h 27.18 V 1542 l 1.49,7.84 4.47,7.46 7.45,4.47 7.83,1.5 h 2.62 0.99 l 2.99,-0.18 3.64,-0.46 0.92,-0.15 v 27.57 l -0.38,0.05 -1.41,0.12 -1.13,0.03 h -0.37 -2.24 l -6.71,-1.5 -8.01,-4.35 -6.82,-7.01 -4.28,-6.98 -1.05,-2.49 v 20.58 z M 0,7920 6440.78,1773.71 6329.75,7920 V 2218.89"
         style="fill:none;stroke:#ff0000;stroke-width:10;stroke-linecap:butt;stroke-linejoin:miter;stroke-miterlimit:10;stroke-dasharray:none;stroke-opacity:1"
         id="path100" /><g
         id="g102"
         transform="scale(10)"><text
           transform="matrix(1,0,0,-1,0,128.952)"
           style="font-variant:normal;font-weight:bold;font-size:19.4167px;font-family:'Helvetica Neue';-inkscape-font-specification:Helvetica-Bold;writing-mode:lr-tb;fill:#000000;fill-opacity:1;fill-rule:nonzero;stroke:none"
           id="text106"><tspan
             x="0 12.950939 20.504036 28.057131 39.920734 47.473831 60.42477 67.977867 75.53096 87.394569 94.947662 107.89861 115.4517 123.00479 134.86839 142.42149 155.37244 162.92554 170.47862 182.34222 189.89532 202.84627 210.39937 217.95245 229.81606 237.36916 250.3201 257.8732 265.4263 277.28989 284.84299 297.79391 305.34702 312.90012 324.76373 332.31683 345.26776 352.82086 360.37396 372.23755 379.79065 392.74158 400.29468 407.84778 419.7114 427.2645 440.21542 447.76852 455.32162 467.18521 474.73831 487.68924 495.24234 502.79544 514.65906 522.21216 535.16309 542.71619 550.26929 562.13287"
             y="0"
             sodipodi:role="line"
             id="tspan104">ErrorErrorErrorErrorErrorErrorErrorErrorErrorErrorErrorError</tspan></text></g><path
         d="m 5790.55,1329.93 0.04,0.53 0.12,1.95 0.02,1.36 v 0.45 3.44 l -1,10.33 -2.17,9.92 -0.58,1.7 -1.14,3.12 -5.32,8.66 -9.39,8.83 -11.84,5.55 -10.34,1.92 h -3.45 -2.47 l -7.41,-0.92 -8.8,-2.72 -7.65,-4.41 -6.42,-6.01 -5.12,-7.53 -3.75,-8.96 -2.3,-10.3 -0.78,-8.66 v -2.88 -2.76 l 0.77,-8.27 2.28,-9.82 3.7,-8.53 5.06,-7.17 6.35,-5.71 7.55,-4.19 8.69,-2.57 7.31,-0.87 h 2.44 1.98 l 5.93,0.56 7.43,1.64 6.85,2.65 6.2,3.62 5.44,4.51 4.59,5.34 3.66,6.13 2.12,5.08 0.51,1.75 h -24.68 l -0.54,-1.37 -2.45,-3.77 -4.29,-3.82 -5.44,-2.38 -4.8,-0.81 h -1.6 -2.4 l -7.17,2.19 -5.99,4.87 -0.89,1.34 -0.45,0.68 -1.05,2.2 -1.03,3.54 -0.67,4.57 -0.32,4.5 -0.06,1.5 z m -64.36,16.64 0.26,2.45 1.82,7.23 3.84,6.87 5.61,4.08 5.57,1.35 h 1.85 1.92 l 5.77,-1.42 5.87,-4.21 3.96,-6.89 1.75,-7.07 0.22,-2.39 z m 81.58,39.51 v -96.56 h 25.03 v 53.72 l 1.38,7.22 4.12,6.87 6.88,4.13 7.21,1.37 h 2.41 0.92 l 2.74,-0.16 3.36,-0.42 0.84,-0.14 v 25.39 l -0.35,0.05 -1.3,0.12 -1.03,0.02 h -0.35 -2.06 l -6.18,-1.38 -7.39,-4.01 -6.28,-6.46 -3.94,-6.43 -0.98,-2.28 v 18.95 z m 69.72,0 v -96.56 h 25.03 v 53.72 l 1.37,7.22 4.13,6.87 6.87,4.13 7.22,1.37 h 2.41 0.92 l 2.74,-0.16 3.36,-0.42 0.84,-0.14 v 25.39 l -0.35,0.05 -1.3,0.12 -1.03,0.02 h -0.35 -2.06 l -6.18,-1.38 -7.39,-4.01 -6.28,-6.46 -3.94,-6.43 -0.98,-2.28 v 18.95 z m 112.28,1.61 h -2.63 l -7.89,-0.9 -9.36,-2.64 -8.14,-4.3 -6.83,-5.87 -5.44,-7.35 -3.99,-8.74 -2.45,-10.06 -0.83,-8.46 v -2.82 -2.84 l 0.83,-8.5 2.45,-10.08 3.99,-8.75 5.47,-7.34 6.84,-5.84 8.17,-4.28 9.41,-2.62 7.93,-0.89 h 2.65 2.62 l 7.89,0.89 9.39,2.61 8.16,4.25 6.87,5.79 5.47,7.26 4.02,8.62 2.47,9.9 0.84,8.32 v 2.78 2.9 l -0.82,8.72 -2.42,10.29 -3.95,8.88 -5.43,7.41 -6.85,5.88 -8.21,4.28 -9.49,2.61 -8.05,0.89 z m 0.18,-20.22 h 2.33 l 7.02,-2.22 7.16,-6.31 4.58,-9.87 1.61,-9.66 v -3.22 -1.62 l -0.43,-4.88 -1.24,-5.9 -1.98,-5.21 -2.68,-4.45 -3.3,-3.61 -3.87,-2.67 -4.38,-1.67 -3.62,-0.57 h -1.2 -1.23 l -3.65,0.57 -4.41,1.65 -3.87,2.67 -3.29,3.61 -2.66,4.48 -1.96,5.28 -1.22,6.01 -0.42,5 v 1.67 1.66 l 0.42,5 1.22,6.02 1.96,5.27 2.66,4.48 3.29,3.61 3.87,2.66 4.41,1.66 3.65,0.56 z m 66.77,18.61 v -96.56 h 25.03 v 53.72 l 1.37,7.22 4.13,6.87 6.87,4.13 7.22,1.37 h 2.41 0.91 l 2.75,-0.16 3.35,-0.42 0.85,-0.14 v 25.39 l -0.36,0.05 -1.29,0.12 -1.04,0.02 h -0.34 -2.06 l -6.19,-1.38 -7.38,-4.01 -6.28,-6.46 -3.95,-6.43 -0.97,-2.28 v 18.95 z M 0,7920 6634.59,1808.39 6532.31,7920 V 2219.2"
         style="fill:none;stroke:#ff0000;stroke-width:10;stroke-linecap:butt;stroke-linejoin:miter;stroke-miterlimit:10;stroke-dasharray:none;stroke-opacity:1"
         id="path108" /><g
         id="g110"
         transform="scale(10)"><text
           transform="matrix(1,0,0,-1,0,111.029)"
           style="font-variant:normal;font-weight:bold;font-size:17.9231px;font-family:'Helvetica Neue';-inkscape-font-specification:Helvetica-Bold;writing-mode:lr-tb;fill:#000000;fill-opacity:1;fill-rule:nonzero;stroke:none"
           id="text114"><tspan
             x="0 11.954708 18.926794 25.89888 36.849895 43.82198 55.776688 62.748772 69.720856 80.671875 87.643959 99.598663 106.57076 113.54284 124.49385 131.46594 143.42064 150.39273 157.36482 168.31583 175.28792 187.24263 194.21471 201.1868 212.13782 219.10989 231.06461 238.0367 245.00877 255.95979 262.93188 274.8866 281.85867 288.83075 299.78177 306.75385 318.70856 325.68066 332.65274 343.60376 350.57584 362.53055 369.50262 376.4747 387.42572 394.39783 406.35251 413.32462 420.29669 431.24771 438.21979 450.1745 457.14658 464.11868 475.0697 482.04178 493.99649 500.96857 507.94064 518.89166 525.86377 537.81848 544.79053 551.76263 562.71362"
             y="0"
             sodipodi:role="line"
             id="tspan112">ErrorErrorErrorErrorErrorErrorErrorErrorErrorErrorErrorErrorError</tspan></text></g><path
         d="m 5784.13,1147.93 0.04,0.5 0.1,1.82 0.03,1.26 v 0.42 3.21 l -0.94,9.62 -2.02,9.24 -0.54,1.59 -1.07,2.9 -4.95,8.07 -8.74,8.23 -11.03,5.16 -9.64,1.79 h -3.21 -2.31 l -6.9,-0.86 -8.2,-2.52 -7.12,-4.11 -5.98,-5.61 -4.77,-7.01 -3.49,-8.35 -2.15,-9.6 -0.72,-8.06 v -2.69 -2.57 l 0.71,-7.7 2.13,-9.15 3.45,-7.95 4.72,-6.67 5.91,-5.32 7.04,-3.9 8.09,-2.4 6.81,-0.81 h 2.28 1.84 l 5.52,0.52 6.92,1.53 6.39,2.47 5.77,3.37 5.07,4.2 4.28,4.98 3.4,5.7 1.97,4.74 0.48,1.63 h -22.99 l -0.5,-1.27 -2.28,-3.52 -4.01,-3.55 -5.06,-2.21 -4.48,-0.76 h -1.5 -1.18 l -3.55,0.52 -4.17,1.52 -3.56,2.45 -2.26,2.43 -0.6,0.91 -0.41,0.63 -0.98,2.05 -0.97,3.29 -0.62,4.26 -0.3,4.18 -0.05,1.4 z m -59.97,15.5 0.24,2.28 1.7,6.75 3.58,6.4 5.24,3.8 5.18,1.25 h 1.73 1.79 l 5.37,-1.32 5.47,-3.92 3.69,-6.42 1.64,-6.59 0.19,-2.23 z m 75.72,36.81 v -89.95 h 23.31 v 50.05 l 1.27,6.72 3.85,6.4 6.4,3.84 6.73,1.29 h 2.25 0.85 l 2.55,-0.15 3.13,-0.4 0.8,-0.13 v 23.66 l -0.34,0.04 -1.22,0.11 -0.97,0.02 h -0.32 -1.92 l -5.75,-1.28 -6.88,-3.74 -5.85,-6.01 -3.68,-6 -0.9,-2.12 v 17.65 z m 64.73,0 v -89.95 h 23.32 v 50.05 l 1.27,6.72 3.85,6.4 6.4,3.84 6.73,1.29 h 2.25 0.85 l 2.55,-0.15 3.13,-0.4 0.79,-0.13 v 23.66 l -0.33,0.04 -1.22,0.11 -0.97,0.02 h -0.32 -1.92 l -5.76,-1.28 -6.87,-3.74 -5.85,-6.01 -3.68,-6 -0.9,-2.12 v 17.65 z m 104.38,1.5 h -2.45 l -7.34,-0.84 -8.73,-2.46 -7.58,-4 -6.36,-5.46 -5.08,-6.85 -3.71,-8.15 -2.29,-9.37 -0.77,-7.88 v -2.63 -2.64 l 0.77,-7.92 2.29,-9.4 3.72,-8.15 5.09,-6.83 6.38,-5.45 7.61,-3.98 8.77,-2.44 7.39,-0.83 h 2.46 2.45 l 7.35,0.83 8.75,2.43 7.6,3.96 6.39,5.39 5.11,6.76 3.74,8.03 2.3,9.23 0.78,7.75 v 2.59 2.71 l -0.76,8.12 -2.25,9.58 -3.69,8.27 -5.06,6.91 -6.38,5.47 -7.65,3.99 -8.85,2.43 -7.5,0.83 z m 0.17,-18.83 h 2.18 l 6.54,-2.07 6.67,-5.88 4.27,-9.19 1.5,-9 v -3 -2.89 l -1.55,-8.66 -4.35,-9 -6.69,-5.85 -6.43,-2.08 h -2.14 -2.16 l -6.49,2.06 -6.68,5.85 -4.3,9.09 -1.52,8.86 v 2.95 2.95 l 1.52,8.86 4.3,9.09 6.68,5.85 6.49,2.06 z m 61.88,17.33 v -89.95 h 23.31 v 50.05 l 1.28,6.72 3.84,6.4 6.41,3.84 6.73,1.29 h 2.24 0.85 l 2.56,-0.15 3.13,-0.4 0.79,-0.13 v 23.66 l -0.34,0.04 -1.21,0.11 -0.97,0.02 h -0.32 -1.93 l -5.75,-1.28 -6.87,-3.74 -5.85,-6.01 -3.68,-6 -0.91,-2.12 v 17.65 z M 0,7920 6813.54,1837.82 6718.26,7920 V 2219.48"
         style="fill:none;stroke:#ff0000;stroke-width:10;stroke-linecap:butt;stroke-linejoin:miter;stroke-miterlimit:10;stroke-dasharray:none;stroke-opacity:1"
         id="path116" /><g
         id="g118"
         transform="scale(10)"><text
           transform="matrix(1,0,0,-1,0,94.3859)"
           style="font-variant:normal;font-weight:bold;font-size:16.6429px;font-family:'Helvetica Neue';-inkscape-font-specification:Helvetica-Bold;writing-mode:lr-tb;fill:#000000;fill-opacity:1;fill-rule:nonzero;stroke:none"
           id="text122"><tspan
             x="0 11.100814 17.574902 24.04899 34.217804 40.691891 51.792706 58.266792 64.740883 74.909691 81.383781 92.484596 98.958687 105.43277 115.60159 122.07567 133.17648 139.65057 146.12466 156.29347 162.76756 173.86838 180.34247 186.81656 196.98537 203.45946 214.56027 221.03435 227.50844 237.67726 244.15134 255.25215 261.72626 268.20035 278.36914 284.84323 295.94406 302.41812 308.89221 319.06104 325.53513 336.63593 343.11002 349.58411 359.75293 366.22702 377.32782 383.80191 390.276 400.44482 406.91891 418.01971 424.4938 430.9679 441.13672 447.61081 458.71161 465.1857 471.65979 481.82858 488.30267 499.4035 505.87759 512.35168 522.52051 528.99457 540.0954 546.56946 553.04358 563.2124"
             y="0"
             sodipodi:role="line"
             id="tspan120">ErrorErrorErrorErrorErrorErrorErrorErrorErrorErrorErrorErrorErrorError</tspan></text></g><path
         d="m 5778.54,979.094 0.04,0.465 0.1,1.687 0.02,1.184 v 0.398 3 l -0.88,9.008 -1.9,8.654 -0.51,1.48 -1,2.71 -4.62,7.55 -8.19,7.7 -10.32,4.83 -9.02,1.68 h -3 -2.16 l -6.46,-0.81 -7.67,-2.36 -6.67,-3.84 -5.6,-5.25 -4.47,-6.56 -3.27,-7.82 -2,-8.972 -0.69,-7.547 v -2.515 -2.407 l 0.68,-7.207 1.98,-8.558 3.24,-7.442 4.41,-6.242 5.54,-4.984 6.58,-3.645 7.58,-2.238 6.38,-0.762 h 2.13 3.34 l 10.02,1.914 11.39,5.465 8.74,8.59 4.61,8.324 0.87,2.973 h -21.52 l -0.47,-1.192 -2.14,-3.292 -3.74,-3.329 -4.74,-2.07 -4.19,-0.711 h -1.39 -1.11 l -3.33,0.485 -3.9,1.425 -3.33,2.301 -2.11,2.27 -0.56,0.847 -0.39,0.586 -0.92,1.922 -0.9,3.082 -0.59,3.988 -0.28,3.922 -0.05,1.313 z m -56.13,14.5 0.23,2.136 1.59,6.32 3.35,5.98 4.9,3.56 4.85,1.18 h 1.62 1.67 l 5.03,-1.25 5.12,-3.66 3.44,-6.01 1.54,-6.174 0.18,-2.082 z m 70.63,34.436 v -84.171 h 21.82 v 46.829 l 1.19,6.292 3.6,5.99 5.99,3.6 6.29,1.2 h 2.1 0.79 l 2.41,-0.14 2.92,-0.37 0.74,-0.12 v 22.14 l -0.32,0.04 -1.12,0.1 -0.9,0.02 h -0.3 -1.8 l -5.39,-1.21 -6.44,-3.49 -5.47,-5.63 -3.45,-5.6 -0.84,-1.99 v 16.51 z m 60.42,0 v -84.171 h 21.82 v 46.829 l 1.19,6.292 3.6,5.99 5.99,3.6 6.29,1.2 h 2.1 0.8 l 2.4,-0.14 2.92,-0.37 0.74,-0.12 v 22.14 l -0.31,0.04 -1.13,0.1 -0.9,0.02 h -0.3 -1.8 l -5.39,-1.21 -6.44,-3.49 -5.47,-5.63 -3.44,-5.6 -0.85,-1.99 v 16.51 z m 97.52,1.41 h -2.29 l -6.88,-0.79 -8.16,-2.3 -7.1,-3.74 -5.95,-5.11 -4.75,-6.41 -3.48,-7.63 -2.13,-8.765 -0.73,-7.379 v -2.457 -2.472 l 0.73,-7.41 2.14,-8.793 3.48,-7.625 4.76,-6.395 5.97,-5.098 7.12,-3.722 8.21,-2.289 6.91,-0.774 h 2.31 2.29 l 6.88,0.774 8.18,2.277 7.12,3.703 5.98,5.051 4.78,6.32 3.5,7.516 2.16,8.633 0.73,7.258 v 2.421 2.532 l -0.71,7.601 -2.11,8.963 -3.46,7.74 -4.73,6.47 -5.98,5.12 -7.15,3.73 -8.28,2.27 -7.02,0.78 z m 0.16,-17.61 h 2.03 l 6.12,-1.94 6.25,-5.51 3.99,-8.607 1.4,-8.421 v -2.805 -2.703 l -1.45,-8.11 -4.06,-8.421 -6.26,-5.473 -6.02,-1.949 h -2 -2.03 l -6.06,1.929 -6.25,5.473 -4.03,8.508 -1.43,8.293 v 2.765 2.762 l 1.43,8.285 4.03,8.514 6.25,5.47 6.06,1.94 z m 57.65,16.2 v -84.171 h 21.82 v 46.829 l 1.19,6.292 3.6,5.99 5.99,3.6 6.29,1.2 h 2.1 0.79 l 2.41,-0.14 2.92,-0.37 0.74,-0.12 v 22.14 l -0.32,0.04 -1.12,0.1 -0.9,0.02 h -0.3 -1.8 l -5.39,-1.21 -6.44,-3.49 -5.47,-5.63 -3.45,-5.6 -0.84,-1.99 v 16.51 z M 0,7920 6979.72,1863.36 6890.56,7920 V 2219.73"
         style="fill:none;stroke:#ff0000;stroke-width:10;stroke-linecap:butt;stroke-linejoin:miter;stroke-miterlimit:10;stroke-dasharray:none;stroke-opacity:1"
         id="path124" /><g
         id="g126"
         transform="scale(10)"><text
           transform="matrix(1,0,0,-1,0,78.8527)"
           style="font-variant:normal;font-weight:bold;font-size:15.5333px;font-family:'Helvetica Neue';-inkscape-font-specification:Helvetica-Bold;writing-mode:lr-tb;fill:#000000;fill-opacity:1;fill-rule:nonzero;stroke:none"
           id="text130"><tspan
             x="0 10.360711 16.403164 22.445618 31.936464 37.97892 48.33963 54.382084 60.424538 69.915382 75.95784 86.31855 92.361 98.403458 107.8943 113.93675 124.29747 130.33992 136.38237 145.87321 151.91568 162.27638 168.31883 174.3613 183.85214 189.89459 200.25531 206.29776 212.34021 221.83105 227.8735 238.23422 244.27667 250.31912 259.80997 265.85242 276.21313 282.25558 288.29803 297.78888 303.83136 314.19205 320.23453 326.27698 335.76782 341.81027 352.17099 358.21344 364.25589 373.74673 379.78918 390.1499 396.19235 402.2348 411.72565 417.7681 428.12881 434.17126 440.21371 449.70456 455.74701 466.10773 472.15018 478.19263 487.68347 493.72595 504.08664 510.12912 516.17157 525.66241 531.70483 542.06555 548.10803 554.15045 563.6413"
             y="0"
             sodipodi:role="line"
             id="tspan128">ErrorErrorErrorErrorErrorErrorErrorErrorErrorErrorErrorErrorErrorErrorError</tspan></text></g><path
         d="m 5772.91,821.34 0.04,0.433 0.09,1.579 0.01,1.101 v 0.371 2.793 l -0.81,8.383 -1.76,8.055 -0.47,1.379 -0.93,2.531 -4.31,7.035 -7.63,7.168 -9.61,4.5 -8.41,1.562 h -2.8 -2.01 l -6.01,-0.75 -7.14,-2.203 -6.21,-3.578 -5.22,-4.879 -4.16,-6.117 -3.04,-7.273 -1.87,-8.36 -0.64,-7.031 v -2.34 -2.242 l 0.63,-6.715 1.85,-7.976 3.02,-6.93 4.11,-5.816 5.15,-4.645 6.14,-3.395 7.06,-2.089 5.94,-0.707 h 1.98 3.11 l 9.33,1.785 10.6,5.094 8.14,8.003 4.3,7.754 0.8,2.77 h -20.03 l -0.44,-1.11 -1.99,-3.062 -3.49,-3.098 -4.41,-1.929 -3.9,-0.661 h -1.3 -1.04 l -3.1,0.45 -3.63,1.32 -3.1,2.137 -1.96,2.113 -0.53,0.793 -0.36,0.547 -0.85,1.793 -0.84,2.871 -0.55,3.711 -0.26,3.652 -0.05,1.223 z m -52.26,13.5 0.21,1.988 1.47,5.883 3.12,5.574 4.57,3.317 4.51,1.097 h 1.51 1.56 l 4.68,-1.16 4.77,-3.418 3.22,-5.594 1.43,-5.746 0.17,-1.941 z m 66.29,32.094 v -78.407 h 20.33 v 43.625 l 1.11,5.86 3.35,5.582 5.58,3.347 5.86,1.118 h 1.96 0.74 l 2.24,-0.133 2.72,-0.352 0.69,-0.109 v 20.625 l -0.29,0.035 -1.05,0.086 -0.85,0.019 h -0.28 -1.67 l -5.02,-1.121 -6,-3.25 -5.1,-5.242 -3.21,-5.219 -0.78,-1.855 v 15.391 z m 56.65,0 v -78.407 h 20.32 v 43.625 l 1.12,5.86 3.35,5.582 5.58,3.347 5.86,1.118 h 1.95 0.75 l 2.23,-0.133 2.72,-0.352 0.69,-0.109 v 20.625 l -0.28,0.035 -1.06,0.086 -0.84,0.019 h -0.28 -1.68 l -5.02,-1.121 -6,-3.25 -5.09,-5.242 -3.21,-5.219 -0.79,-1.855 v 15.391 z m 91.2,1.296 h -2.13 l -6.41,-0.73 -7.6,-2.145 -6.61,-3.488 -5.54,-4.762 -4.43,-5.968 -3.24,-7.102 -1.99,-8.164 -0.67,-6.867 v -2.289 -2.305 l 0.67,-6.902 2,-8.188 3.24,-7.105 4.44,-5.957 5.56,-4.75 6.63,-3.473 7.64,-2.129 6.44,-0.722 h 2.14 2.14 l 6.4,0.722 7.62,2.121 6.63,3.45 5.58,4.707 4.45,5.89 3.26,7.004 2.01,8.043 0.68,6.762 v 2.254 2.355 l -0.67,7.078 -1.96,8.348 -3.21,7.207 -4.41,6.02 -5.57,4.769 -6.66,3.473 -7.71,2.121 -6.54,0.722 z m 0.14,-16.406 h 1.9 l 5.7,-1.808 5.82,-5.125 3.71,-8.012 1.31,-7.848 v -2.613 -2.516 l -1.35,-7.547 -3.79,-7.847 -5.82,-5.102 -5.61,-1.816 h -1.87 -1.88 l -5.65,1.801 -5.82,5.093 -3.76,7.93 -1.32,7.723 v 2.578 2.57 l 1.32,7.719 3.76,7.926 5.82,5.093 5.65,1.801 z m 54.28,15.11 v -78.407 h 20.33 v 43.625 l 1.11,5.86 3.35,5.582 5.58,3.347 5.86,1.118 h 1.95 0.75 l 2.23,-0.133 2.72,-0.352 0.7,-0.109 v 20.625 l -0.29,0.035 -1.05,0.086 -0.85,0.019 h -0.28 -1.68 l -5.02,-1.121 -5.99,-3.25 -5.1,-5.242 -3.21,-5.219 -0.78,-1.855 v 15.391 z M 0,7920 7134.82,1886.21 7051.77,7920 V 2219.98"
         style="fill:none;stroke:#ff0000;stroke-width:10;stroke-linecap:butt;stroke-linejoin:miter;stroke-miterlimit:10;stroke-dasharray:none;stroke-opacity:1"
         id="path132" /><g
         id="g134"
         transform="scale(10)"><text
           transform="matrix(1,0,0,-1,0,64.2902)"
           style="font-variant:normal;font-weight:bold;font-size:14.5625px;font-family:'Helvetica Neue';-inkscape-font-specification:Helvetica-Bold;writing-mode:lr-tb;fill:#000000;fill-opacity:1;fill-rule:nonzero;stroke:none"
           id="text138"><tspan
             x="0 9.7131872 15.378 21.042812 29.9405 35.605312 45.318501 50.983311 56.648125 65.545815 71.210625 80.923813 86.588623 92.253441 101.15112 106.81594 116.52912 122.19394 127.85875 136.75644 142.42125 152.13443 157.79926 163.46407 172.36176 178.02657 187.73975 193.40456 199.06938 207.96706 213.63188 223.34506 229.00987 234.67468 243.57237 249.23718 258.95038 264.61517 270.28 279.17767 284.8425 294.55569 300.22049 305.88531 314.78299 320.44781 330.16101 335.82581 341.49063 350.38831 356.05313 365.76633 371.43112 377.09595 385.99362 391.65845 401.37161 407.03644 412.70126 421.59894 427.26376 436.97693 442.64175 448.30655 457.20425 462.86905 472.58224 478.24707 483.91187 492.80957 498.47437 508.18756 513.85236 519.51721 528.41486 534.07971 543.79285 549.4577 555.1225 564.0202"
             y="0"
             sodipodi:role="line"
             id="tspan136">ErrorErrorErrorErrorErrorErrorErrorErrorErrorErrorErrorErrorErrorErrorErrorError</tspan></text></g><path
         d="m 5768.95,673.98 0.03,0.415 0.08,1.5 0.02,1.046 v 0.352 2.645 l -0.77,7.941 -1.66,7.637 -0.45,1.308 -0.88,2.395 -4.09,6.66 -7.22,6.793 -9.11,4.266 -7.97,1.48 h -2.65 -1.9 l -5.7,-0.711 -6.76,-2.086 -5.88,-3.391 -4.94,-4.628 -3.94,-5.793 -2.88,-6.891 -1.77,-7.922 -0.6,-6.656 V 678.121 676 l 0.59,-6.363 1.75,-7.555 2.85,-6.562 3.9,-5.512 4.88,-4.395 5.81,-3.218 6.68,-1.977 5.63,-0.672 h 1.88 2.94 l 8.85,1.688 10.04,4.824 7.72,7.578 4.07,7.348 0.77,2.625 h -18.99 l -0.42,-1.055 -1.88,-2.902 -3.31,-2.938 -4.18,-1.836 -3.7,-0.629 h -1.23 -0.98 l -2.93,0.43 -3.45,1.258 -2.93,2.027 -1.87,2.004 -0.49,0.75 -0.34,0.52 -0.81,1.691 -0.79,2.719 -0.52,3.515 -0.25,3.461 -0.04,1.156 z m -49.51,12.797 0.2,1.883 1.4,5.578 2.95,5.282 4.32,3.14 4.28,1.039 h 1.43 1.47 l 4.44,-1.097 4.52,-3.239 3.04,-5.304 1.35,-5.446 0.16,-1.836 z m 62.31,30.407 V 642.902 H 5801 v 41.317 l 1.05,5.554 3.18,5.29 5.29,3.171 5.55,1.059 h 1.85 0.71 l 2.11,-0.121 2.58,-0.324 0.65,-0.102 v 19.531 l -0.27,0.036 -1,0.085 -0.81,0.02 h -0.26 -1.59 l -4.75,-1.063 -5.68,-3.085 -4.82,-4.969 -3.04,-4.949 -0.75,-1.762 v 14.594 z m 53.31,0 v -74.282 h 19.25 v 41.317 l 1.06,5.554 3.17,5.29 5.29,3.171 5.55,1.059 h 1.85 0.71 l 2.11,-0.121 2.58,-0.324 0.65,-0.102 v 19.531 l -0.27,0.036 -1,0.085 -0.81,0.02 h -0.26 -1.59 l -4.75,-1.063 -5.67,-3.085 -4.83,-4.969 -3.04,-4.949 -0.75,-1.762 v 14.594 z m 86.05,1.234 h -2.02 l -6.07,-0.695 -7.21,-2.032 -6.26,-3.304 -5.25,-4.512 -4.19,-5.656 -3.07,-6.731 -1.88,-7.734 -0.64,-6.512 v -2.168 -2.183 l 0.64,-6.539 1.88,-7.754 3.07,-6.731 4.2,-5.64 5.27,-4.497 6.28,-3.285 7.24,-2.015 6.1,-0.684 h 2.03 2.03 l 6.07,0.684 7.22,2.008 6.28,3.265 5.28,4.457 4.22,5.574 3.09,6.633 1.9,7.621 0.65,6.403 v 2.136 2.235 l -0.63,6.703 -1.86,7.914 -3.05,6.828 -4.18,5.703 -5.27,4.52 -6.31,3.293 -7.31,2.011 -6.19,0.684 z m 0.12,-15.547 h 1.8 l 5.4,-1.711 5.51,-4.855 3.52,-7.59 1.24,-7.43 v -2.476 -2.387 l -1.27,-7.16 -3.59,-7.434 -5.52,-4.832 -5.32,-1.719 h -1.77 -1.78 l -5.36,1.707 -5.51,4.829 -3.56,7.511 -1.25,7.313 v 2.437 2.438 l 1.25,7.316 3.56,7.512 5.51,4.824 5.36,1.707 z m 50.89,14.313 v -74.282 h 19.25 v 41.317 l 1.05,5.554 3.18,5.29 5.28,3.171 5.56,1.059 h 1.85 0.7 l 2.12,-0.121 2.57,-0.324 0.66,-0.102 v 19.531 l -0.28,0.036 -1,0.085 -0.8,0.02 h -0.27 -1.58 l -4.75,-1.063 -5.68,-3.085 -4.83,-4.969 -3.04,-4.949 -0.74,-1.762 v 14.594 z M 0,7920 7280.25,1905.66 7201.58,7920 V 2220.09"
         style="fill:none;stroke:#ff0000;stroke-width:10;stroke-linecap:butt;stroke-linejoin:miter;stroke-miterlimit:10;stroke-dasharray:none;stroke-opacity:1"
         id="path140" /><g
         id="g142"
         transform="scale(10)"><text
           transform="matrix(1,0,0,-1,0,50.5844)"
           style="font-variant:normal;font-weight:bold;font-size:13.7059px;font-family:'Helvetica Neue';-inkscape-font-specification:Helvetica-Bold;writing-mode:lr-tb;fill:#000000;fill-opacity:1;fill-rule:nonzero;stroke:none"
           id="text146"><tspan
             x="0 9.1418352 14.473431 19.805025 28.179331 33.510925 42.65276 47.984356 53.315952 61.690254 67.021851 76.163689 81.495285 86.826874 95.20118 100.53278 109.67461 115.00621 120.3378 128.71211 134.0437 143.18553 148.51714 153.84872 162.22304 167.55463 176.69646 182.02806 187.35965 195.73396 201.06555 210.20738 215.53899 220.87057 229.24489 234.57648 243.71831 249.04991 254.3815 262.7558 268.0874 277.22925 282.56082 287.89243 296.26672 301.59833 310.74017 316.07175 321.40335 329.77765 335.10925 344.2511 349.58267 354.91428 363.28857 368.62018 377.76202 383.0936 388.4252 396.7995 402.1311 411.27295 416.60452 421.93613 430.31042 435.64203 444.78387 450.11545 455.44705 463.82135 469.15295 478.2948 483.62637 488.95798 497.33228 502.66388 511.80573 517.13733 522.46893 530.8432 536.1748 545.31665 550.64825 555.97986 564.35413"
             y="0"
             sodipodi:role="line"
             id="tspan144">ErrorErrorErrorErrorErrorErrorErrorErrorErrorErrorErrorErrorErrorErrorErrorErrorError</tspan></text></g><path
         d="m 5764.92,535.203 0.04,0.391 0.08,1.41 0.02,0.98 v 0.329 2.5 l -0.73,7.503 -1.58,7.215 -0.42,1.235 -0.83,2.261 -3.86,6.293 -6.82,6.414 -8.6,4.024 -7.52,1.398 h -2.51 -1.8 l -5.38,-0.672 -6.39,-1.968 -5.55,-3.203 -4.66,-4.372 -3.73,-5.472 -2.72,-6.508 -1.67,-7.481 -0.57,-6.292 v -2.094 -2.004 l 0.56,-6.008 1.65,-7.129 2.7,-6.199 3.67,-5.203 4.61,-4.153 5.49,-3.039 6.31,-1.867 5.31,-0.633 h 1.78 2.78 l 8.35,1.594 9.49,4.559 7.29,7.16 3.85,6.941 0.72,2.481 h -17.92 l -0.4,-0.996 -1.78,-2.746 -3.12,-2.778 -3.95,-1.73 -3.5,-0.594 h -1.16 -0.92 l -2.78,0.406 -3.25,1.188 -2.77,1.918 -1.76,1.89 -0.47,0.707 -0.32,0.489 -0.76,1.601 -0.76,2.571 -0.48,3.324 -0.23,3.265 -0.04,1.094 z m -46.76,12.078 0.19,1.778 1.32,5.265 2.79,4.992 4.09,2.965 4.04,0.985 h 1.35 1.39 l 4.2,-1.039 4.26,-3.059 2.88,-5.008 1.27,-5.144 0.15,-1.735 z m 58.86,28.703 v -70.14 h 18.18 v 39.027 l 1,5.246 3,4.996 4.99,2.996 5.24,1 h 1.74 0.67 l 2,-0.121 2.43,-0.312 0.62,-0.098 v 18.453 l -0.26,0.032 -0.93,0.078 -0.76,0.015 h -0.25 -1.5 l -4.49,-1.004 -5.37,-2.91 -4.56,-4.691 -2.86,-4.672 -0.71,-1.66 v 13.765 z m 50.35,0 v -70.14 h 18.18 v 39.027 l 1,5.246 3,4.996 4.99,2.996 5.24,1 h 1.74 0.67 l 2,-0.121 2.44,-0.312 0.61,-0.098 v 18.453 l -0.26,0.032 -0.93,0.078 -0.76,0.015 h -0.25 -1.5 l -4.49,-1.004 -5.37,-2.91 -4.56,-4.691 -2.86,-4.672 -0.71,-1.66 v 13.765 z m 81.26,1.172 h -1.92 l -5.72,-0.656 -6.8,-1.918 -5.91,-3.117 -4.96,-4.262 -3.96,-5.336 -2.9,-6.355 -1.78,-7.305 -0.6,-6.144 v -2.047 -2.063 l 0.6,-6.176 1.78,-7.324 2.91,-6.359 3.97,-5.328 4.97,-4.25 5.94,-3.106 6.83,-1.906 5.76,-0.645 h 1.93 1.91 l 5.73,0.645 6.82,1.898 5.93,3.086 4.99,4.211 3.98,5.266 2.92,6.262 1.79,7.195 0.61,6.047 v 2.015 2.11 l -0.59,6.336 -1.76,7.472 -2.88,6.45 -3.95,5.386 -4.98,4.266 -5.96,3.109 -6.91,1.899 -5.85,0.644 z m 0.14,-14.672 h 1.69 l 5.1,-1.617 5.21,-4.59 3.32,-7.168 1.18,-7.019 v -2.34 -2.254 l -1.22,-6.758 -3.39,-7.019 -5.21,-4.563 -5.02,-1.625 h -1.66 -1.69 l -5.06,1.61 -5.21,4.562 -3.36,7.094 -1.18,6.914 v 2.305 2.3 l 1.18,6.903 3.36,7.094 5.21,4.558 5.06,1.613 z m 48.04,13.5 v -70.14 H 5975 v 39.027 l 0.99,5.246 3,4.996 4.99,2.996 5.24,1 h 1.74 0.67 l 2,-0.121 2.44,-0.312 0.61,-0.098 v 18.453 l -0.25,0.032 -0.94,0.078 -0.76,0.015 h -0.25 -1.5 l -4.49,-1.004 -5.36,-2.91 -4.57,-4.691 -2.86,-4.672 -0.7,-1.66 v 13.765 z M 0,7920 7417.14,1923.32 7342.84,7920 V 2220.28"
         style="fill:none;stroke:#ff0000;stroke-width:10;stroke-linecap:butt;stroke-linejoin:miter;stroke-miterlimit:10;stroke-dasharray:none;stroke-opacity:1"
         id="path148" /><g
         id="g150"
         transform="scale(10)"><text
           transform="matrix(1,0,0,-1,0,37.6398)"
           style="font-variant:normal;font-weight:bold;font-size:12.9444px;font-family:'Helvetica Neue';-inkscape-font-specification:Helvetica-Bold;writing-mode:lr-tb;fill:#000000;fill-opacity:1;fill-rule:nonzero;stroke:none"
           id="text154"><tspan
             x="0 8.6339149 13.669287 18.704659 26.613686 31.649057 40.282974 45.318344 50.353718 58.262745 63.298115 71.93203 76.9674 82.002777 89.911804 94.947174 103.58109 108.61646 113.65183 121.56086 126.59623 135.23015 140.26552 145.30089 153.20992 158.24529 166.87921 171.91458 176.94995 184.85898 189.89435 198.52826 203.56363 208.599 216.50804 221.54341 230.17732 235.21269 240.24806 248.15709 253.19246 261.82639 266.86176 271.89713 279.80615 284.84152 293.47543 298.5108 303.54617 311.4552 316.49057 325.12448 330.15988 335.19525 343.10428 348.13965 356.77356 361.80893 366.8443 374.75333 379.7887 388.42261 393.45798 398.49335 406.40237 411.43774 420.07166 425.10703 430.14243 438.05145 443.08682 451.72073 456.7561 461.79147 469.7005 474.73587 483.36978 488.40515 493.44052 501.34955 506.38492 515.01886 520.0542 525.0896 532.9986 538.034 546.66791 551.70325 556.73865 564.64764"
             y="0"
             sodipodi:role="line"
             id="tspan152">ErrorErrorErrorErrorErrorErrorErrorErrorErrorErrorErrorErrorErrorErrorErrorErrorErrorError</tspan></text></g><path
         d="m 5760.92,404.023 0.03,0.368 0.08,1.328 0.02,0.929 v 0.313 2.352 l -0.69,7.066 -1.48,6.781 -0.4,1.16 -0.78,2.129 -3.64,5.926 -6.42,6.039 -8.1,3.793 -7.08,1.316 h -2.35 -1.69 l -5.07,-0.632 -6.01,-1.856 -5.23,-3.015 -4.39,-4.114 -3.5,-5.152 -2.56,-6.129 -1.58,-7.039 -0.53,-5.918 v -1.973 -1.886 l 0.52,-5.657 1.56,-6.714 2.54,-5.833 3.46,-4.898 4.34,-3.91 5.17,-2.859 5.94,-1.754 5,-0.598 h 1.67 2.62 l 7.86,1.5 8.93,4.289 6.86,6.738 3.61,6.532 0.68,2.332 h -16.87 l -0.37,-0.938 -1.68,-2.578 -2.93,-2.609 -3.72,-1.629 -3.29,-0.559 h -1.09 -0.87 l -2.61,0.379 -3.06,1.117 -2.61,1.805 -1.66,1.781 -0.44,0.668 -0.3,0.461 -0.72,1.508 -0.71,2.418 -0.45,3.121 -0.22,3.074 -0.04,1.027 z m -44.01,11.375 0.18,1.676 1.24,4.957 2.63,4.699 3.84,2.79 3.81,0.925 h 1.27 1.31 l 3.94,-0.976 4.01,-2.879 2.72,-4.715 1.2,-4.844 0.14,-1.633 z m 55.83,27.016 v -66.016 h 17.11 v 36.735 l 0.94,4.93 2.82,4.699 4.7,2.82 4.94,0.941 h 1.65 0.62 l 1.88,-0.109 2.29,-0.285 0.58,-0.09 v 17.359 l -0.24,0.032 -0.89,0.078 -0.71,0.015 h -0.23 -1.41 l -4.23,-0.945 -5.05,-2.742 -4.29,-4.414 -2.7,-4.399 -0.67,-1.562 v 12.953 z m 47.71,0 v -66.016 h 17.1 v 36.735 l 0.94,4.93 2.83,4.699 4.7,2.82 4.93,0.941 h 1.65 0.63 l 1.87,-0.109 2.29,-0.285 0.59,-0.09 v 17.359 l -0.25,0.032 -0.88,0.078 -0.72,0.015 h -0.23 -1.41 l -4.23,-0.945 -5.05,-2.742 -4.29,-4.414 -2.7,-4.399 -0.67,-1.562 v 12.953 z m 76.79,1.109 h -1.8 l -5.39,-0.617 -6.4,-1.804 -5.56,-2.938 -4.67,-4.012 -3.72,-5.023 -2.73,-5.984 -1.68,-6.875 -0.56,-5.79 v -1.925 -1.942 l 0.56,-5.812 1.68,-6.895 2.73,-5.984 3.73,-5.016 4.69,-3.996 5.58,-2.922 6.44,-1.793 5.42,-0.609 h 1.81 1.79 l 5.4,0.605 6.42,1.789 5.58,2.903 4.69,3.965 3.75,4.957 2.74,5.898 1.69,6.774 0.58,5.695 v 1.898 1.985 l -0.56,5.961 -1.66,7.031 -2.7,6.07 -3.71,5.071 -4.69,4.015 -5.61,2.926 -6.5,1.785 -5.51,0.609 z m 0.13,-13.812 h 1.59 l 4.81,-1.523 4.89,-4.317 3.13,-6.754 1.11,-6.609 v -2.203 -2.121 l -1.14,-6.356 -3.19,-6.605 -4.91,-4.297 -4.72,-1.528 h -1.57 -1.59 l -4.76,1.516 -4.91,4.293 -3.16,6.676 -1.11,6.504 v 2.168 2.164 l 1.11,6.504 3.16,6.679 4.91,4.289 4.76,1.52 z m 45.7,12.703 v -66.016 h 17.11 v 36.735 l 0.94,4.93 2.83,4.699 4.69,2.82 4.94,0.941 h 1.65 0.63 l 1.87,-0.109 2.29,-0.285 0.59,-0.09 v 17.359 l -0.25,0.032 -0.88,0.078 -0.72,0.015 h -0.23 -1.41 l -4.23,-0.945 -5.05,-2.742 -4.29,-4.414 -2.7,-4.399 -0.67,-1.562 v 12.953 z M 0,7920 7546.41,1939.39 7476.48,7920 V 2220.45"
         style="fill:none;stroke:#ff0000;stroke-width:10;stroke-linecap:butt;stroke-linejoin:miter;stroke-miterlimit:10;stroke-dasharray:none;stroke-opacity:1"
         id="path156" /><g
         id="g158"
         transform="scale(10)"><text
           transform="matrix(1,0,0,-1,0,25.3766)"
           style="font-variant:normal;font-weight:bold;font-size:12.2632px;font-family:'Helvetica Neue';-inkscape-font-specification:Helvetica-Bold;writing-mode:lr-tb;fill:#000000;fill-opacity:1;fill-rule:nonzero;stroke:none"
           id="text162"><tspan
             x="0 8.179554 12.949939 17.720324 25.213139 29.983524 38.163078 42.933464 47.70385 55.196663 59.967049 68.146599 72.916985 77.68737 85.180183 89.950569 98.130127 102.90051 107.6709 115.16371 119.9341 128.11365 132.88403 137.65442 145.14723 149.91762 158.09717 162.86755 167.63794 175.13075 179.90114 188.0807 192.85109 197.62148 205.11429 209.88467 218.06422 222.83461 227.605 235.09781 239.86819 248.04774 252.81813 257.5885 265.08133 269.85172 278.03128 282.80167 287.57205 295.06485 299.83524 308.0148 312.78519 317.55557 325.04837 329.81876 337.99832 342.76871 347.53909 355.03189 359.80228 367.98184 372.75223 377.52261 385.01544 389.7858 397.96536 402.73575 407.50613 414.99896 419.76935 427.94888 432.71927 437.48965 444.98248 449.75287 457.9324 462.70279 467.47318 474.966 479.73639 487.91592 492.68631 497.4567 504.94952 509.71991 517.89948 522.66986 527.44025 534.93304 539.70343 547.883 552.65338 557.42377 564.91656"
             y="0"
             sodipodi:role="line"
             id="tspan160">ErrorErrorErrorErrorErrorErrorErrorErrorErrorErrorErrorErrorErrorErrorErrorErrorErrorErrorError</tspan></text></g><path
         d="m 5757.74,280.016 0.03,0.347 0.08,1.258 0.02,0.879 v 0.297 2.234 l -0.66,6.711 -1.42,6.449 -0.38,1.106 -0.74,2.019 -3.45,5.625 -6.09,5.739 -7.69,3.601 -6.73,1.25 h -2.23 -1.61 l -4.81,-0.601 -5.72,-1.762 -4.96,-2.863 -4.17,-3.91 -3.33,-4.895 -2.43,-5.82 -1.5,-6.688 -0.5,-5.621 v -1.871 -1.793 l 0.5,-5.371 1.48,-6.379 2.4,-5.543 3.29,-4.652 4.12,-3.715 4.91,-2.719 5.64,-1.668 4.76,-0.566 h 1.58 2.49 l 7.47,1.426 8.48,4.078 6.52,6.406 3.43,6.203 0.64,2.215 h -16.03 l -0.35,-0.891 -1.59,-2.457 -2.79,-2.48 -3.53,-1.547 -3.12,-0.531 h -1.04 -0.83 l -2.48,0.363 -2.91,1.062 -2.47,1.715 -1.57,1.696 -0.43,0.632 -0.29,0.434 -0.68,1.43 -0.67,2.297 -0.44,2.972 -0.21,2.922 -0.03,0.977 z m -41.81,10.797 0.17,1.589 1.18,4.711 2.5,4.461 3.65,2.656 3.61,0.879 h 1.2 1.25 l 3.75,-0.929 3.81,-2.735 2.57,-4.48 1.14,-4.602 0.14,-1.55 z m 53.04,25.671 v -62.718 h 16.26 v 34.89 l 0.9,4.692 2.67,4.468 4.47,2.68 4.68,0.895 h 1.57 0.59 l 1.79,-0.106 2.17,-0.277 0.56,-0.086 v 16.5 l -0.24,0.027 -0.83,0.067 -0.68,0.015 h -0.22 -1.34 l -4.02,-0.894 -4.8,-2.606 -4.07,-4.195 -2.57,-4.18 -0.63,-1.484 v 12.312 z m 45.32,0 v -62.718 h 16.26 v 34.89 l 0.89,4.692 2.68,4.468 4.47,2.68 4.68,0.895 h 1.56 0.6 l 1.78,-0.106 2.18,-0.277 0.55,-0.086 v 16.5 l -0.23,0.027 -0.83,0.067 -0.68,0.015 h -0.23 -1.34 l -4.01,-0.894 -4.8,-2.606 -4.08,-4.195 -2.56,-4.18 -0.63,-1.484 v 12.312 z m 72.95,1.047 h -1.7 l -5.13,-0.586 -6.08,-1.715 -5.28,-2.789 -4.44,-3.808 -3.54,-4.774 -2.59,-5.683 -1.59,-6.535 -0.54,-5.496 v -1.832 -1.844 l 0.54,-5.52 1.59,-6.551 2.6,-5.683 3.55,-4.766 4.45,-3.797 5.31,-2.777 6.11,-1.703 5.15,-0.578 h 1.72 1.7 l 5.13,0.578 6.09,1.695 5.31,2.762 4.46,3.762 3.56,4.711 2.61,5.601 1.6,6.43 0.55,5.406 v 1.805 1.886 l -0.53,5.665 -1.57,6.683 -2.57,5.77 -3.53,4.812 -4.46,3.817 -5.33,2.781 -6.17,1.695 -5.24,0.578 z m 0.13,-13.125 h 1.51 l 4.56,-1.445 4.65,-4.102 2.98,-6.414 1.05,-6.277 v -2.09 -2.015 l -1.08,-6.04 -3.04,-6.277 -4.66,-4.078 -4.48,-1.449 h -1.49 -1.51 l -4.52,1.437 -4.66,4.078 -3,6.34 -1.06,6.176 v 2.063 2.058 l 1.06,6.176 3,6.34 4.66,4.078 4.52,1.441 z m 43.41,12.078 v -62.718 h 16.27 v 34.89 l 0.89,4.692 2.68,4.468 4.46,2.68 4.69,0.895 h 1.56 0.59 l 1.79,-0.106 2.18,-0.277 0.55,-0.086 v 16.5 l -0.23,0.027 -0.84,0.067 -0.68,0.015 h -0.22 -1.34 l -4.02,-0.894 -4.79,-2.606 -4.08,-4.195 -2.56,-4.18 -0.63,-1.484 v 12.312 z M 0,7920 7668.91,1953.56 7602.47,7920 V 2220.55"
         style="fill:none;stroke:#ff0000;stroke-width:10;stroke-linecap:butt;stroke-linejoin:miter;stroke-miterlimit:10;stroke-dasharray:none;stroke-opacity:1"
         id="path164" /><g
         id="g166"
         transform="scale(10)"><text
           transform="matrix(1,0,0,-1,0,13.7266)"
           style="font-variant:normal;font-weight:bold;font-size:11.65px;font-family:'Helvetica Neue';-inkscape-font-specification:Helvetica-Bold;writing-mode:lr-tb;fill:#000000;fill-opacity:1;fill-rule:nonzero;stroke:none"
           id="text170"><tspan
             x="0 7.7705498 12.3024 16.834249 23.9524 28.484249 36.254799 40.786652 45.318501 52.436649 56.968498 64.739052 69.270897 73.80275 80.920898 85.452751 93.223297 97.75515 102.287 109.40515 113.937 121.70755 126.2394 130.77126 137.8894 142.42125 150.1918 154.72365 159.25549 166.37366 170.9055 178.67606 183.2079 187.73975 194.85789 199.38976 207.16029 211.69215 216.224 223.34215 227.87399 235.64455 240.17641 244.70825 251.8264 256.35825 264.12881 268.66064 273.1925 280.31064 284.8425 292.61304 297.1449 301.67676 308.79489 313.32675 321.09729 325.62915 330.16101 337.27914 341.811 349.58154 354.1134 358.64526 365.7634 370.29526 378.0658 382.59766 387.12949 394.24765 398.77951 406.55005 411.08191 415.61374 422.7319 427.26376 435.0343 439.56616 444.09799 451.21616 455.74799 463.51855 468.05042 472.58224 479.70041 484.23224 492.00281 496.53464 501.0665 508.18466 512.71649 520.48706 525.01892 529.55072 536.66888 541.20074 548.97131 553.50317 558.03497 565.15314"
             y="0"
             sodipodi:role="line"
             id="tspan168">ErrorErrorErrorErrorErrorErrorErrorErrorErrorErrorErrorErrorErrorErrorErrorErrorErrorErrorErrorError</tspan></text></g><path
         d="m 5755.33,162.484 0.03,0.332 0.08,1.207 0.01,0.848 v 0.285 2.149 l -0.63,6.445 -1.35,6.191 -0.36,1.059 -0.72,1.941 -3.31,5.407 -5.87,5.511 -7.39,3.457 -6.45,1.2 h -2.15 -1.54 l -4.63,-0.578 -5.49,-1.692 -4.77,-2.754 -4,-3.75 -3.2,-4.703 -2.34,-5.59 -1.43,-6.422 -0.49,-5.402 v -1.797 -1.723 l 0.48,-5.156 1.42,-6.129 2.31,-5.324 3.16,-4.469 3.96,-3.566 4.72,-2.609 5.42,-1.606 4.57,-0.543 h 1.52 2.39 l 7.17,1.367 8.15,3.914 6.26,6.149 3.3,5.957 0.62,2.129 h -15.4 l -0.34,-0.856 -1.53,-2.355 -2.67,-2.379 -3.4,-1.481 -3,-0.507 h -1 -0.8 l -2.37,0.347 -2.8,1.016 -2.38,1.641 -1.52,1.621 -0.4,0.609 -0.27,0.422 -0.65,1.375 -0.64,2.211 -0.42,2.855 -0.2,2.809 -0.04,0.937 z m -40.16,10.375 0.17,1.528 1.12,4.515 2.4,4.286 3.51,2.546 3.47,0.844 h 1.16 1.2 l 3.6,-0.89 3.66,-2.625 2.47,-4.297 1.09,-4.418 0.14,-1.489 z m 50.42,24.657 v -60.25 h 15.61 v 33.515 l 0.86,4.504 2.58,4.289 4.29,2.567 4.5,0.859 h 1.51 0.57 l 1.71,-0.098 2.09,-0.257 0.53,-0.082 v 15.843 l -0.22,0.028 -1.26,0.082 h -0.42 -1.29 l -3.85,-0.864 -4.61,-2.5 -3.92,-4.027 -2.46,-4.012 -0.61,-1.425 v 11.828 z m 43.16,0 v -60.25 h 15.61 v 33.515 l 0.86,4.504 2.58,4.289 4.29,2.567 4.5,0.859 h 1.51 0.57 l 1.71,-0.098 2.09,-0.257 0.53,-0.082 v 15.843 l -0.22,0.028 -1.26,0.082 h -0.42 -1.29 l -3.85,-0.864 -4.61,-2.5 -3.92,-4.027 -2.46,-4.012 -0.61,-1.425 v 11.828 z m 69.71,1 h -1.64 l -4.92,-0.563 -5.84,-1.648 -5.08,-2.68 -4.26,-3.656 -3.4,-4.586 -2.48,-5.457 -1.53,-6.278 -0.52,-5.281 v -1.758 -1.769 l 0.52,-5.305 1.53,-6.293 2.49,-5.457 3.4,-4.578 4.28,-3.648 5.1,-2.664 5.86,-1.637 4.95,-0.555 h 1.65 1.64 l 4.92,0.555 5.86,1.629 5.1,2.648 4.28,3.617 3.42,4.524 2.51,5.379 1.54,6.175 0.53,5.192 v 1.734 1.813 l -0.51,5.437 -1.52,6.418 -2.46,5.543 -3.4,4.625 -4.27,3.668 -5.12,2.668 -5.93,1.633 -5.03,0.555 z m 0.11,-12.61 h 1.46 l 4.38,-1.39 4.47,-3.938 2.85,-6.156 1.01,-6.024 v -2.007 -1.938 l -1.04,-5.805 -2.9,-6.027 -4.48,-3.914 -4.32,-1.394 h -1.43 -1.45 l -4.33,1.378 -4.47,3.914 -2.89,6.09 -1.02,5.934 v 1.98 1.977 l 1.02,5.93 2.89,6.089 4.47,3.915 4.33,1.386 z m 41.13,11.61 v -60.25 h 15.61 v 33.515 l 0.86,4.504 2.58,4.289 4.29,2.567 4.5,0.859 h 1.51 0.57 l 1.71,-0.098 2.09,-0.257 0.53,-0.082 v 15.843 l -0.22,0.028 -1.27,0.082 h -0.41 -1.29 l -3.85,-0.864 -4.61,-2.5 -3.92,-4.027 -2.46,-4.012 -0.61,-1.425 v 11.828 z M 0,7920 7785.3,1966.05 7721.48,7920 V 2220.67"
         style="fill:none;stroke:#ff0000;stroke-width:10;stroke-linecap:butt;stroke-linejoin:miter;stroke-miterlimit:10;stroke-dasharray:none;stroke-opacity:1"
         id="path172" /><g
         id="g174"
         transform="scale(10)"><text
           transform="matrix(1,0,0,-1,0,2.63125)"
           style="font-variant:normal;font-weight:bold;font-size:11.0952px;font-family:'Helvetica Neue';-inkscape-font-specification:Helvetica-Bold;writing-mode:lr-tb;fill:#000000;fill-opacity:1;fill-rule:nonzero;stroke:none"
           id="text178"><tspan
             x="0 7.4004984 11.716531 16.032564 22.811731 27.127764 34.528263 38.844296 43.160328 49.939495 54.255527 61.656025 65.972061 70.288094 77.067261 81.383293 88.783791 93.099823 97.415855 104.19502 108.51105 115.91155 120.22758 124.54362 131.32278 135.63882 143.03932 147.35535 151.67139 158.45055 162.76659 170.16708 174.48311 178.79915 185.57831 189.89435 197.29485 201.61089 205.92691 212.70609 217.02211 224.42261 228.73865 233.05467 239.83385 244.14987 251.55037 255.86641 260.18243 266.96161 271.27765 278.67813 282.99417 287.31021 294.08939 298.4054 305.80591 310.12195 314.43796 321.21713 325.53317 332.93365 337.24969 341.56573 348.34491 352.66092 360.06143 364.37747 368.69348 375.47266 379.7887 387.18921 391.50522 395.82126 402.60043 406.91647 414.31696 418.633 422.94904 429.72818 434.04422 441.44473 445.76074 450.07678 456.85596 461.172 468.57248 472.88852 477.20456 483.98373 488.29974 495.70026 500.0163 504.33231 511.11148 515.42749 522.828 527.14404 531.46008 538.23926 542.5553 549.95575 554.27179 558.58783 565.367"
             y="0"
             sodipodi:role="line"
             id="tspan176">ErrorErrorErrorErrorErrorErrorErrorErrorErrorErrorErrorErrorErrorErrorErrorErrorErrorErrorErrorErrorError</tspan></text></g></g></g></svg>
