<svg xmlns="http://www.w3.org/2000/svg" width="202" height="26.071" viewBox="0 0 53.446 6.898"><g font-weight="700" font-size="5.997" text-anchor="middle"><path style="line-height:100%;-inkscape-font-specification:'Rubik Bold';font-variant-ligatures:discretionary-ligatures historical-ligatures;font-variant-caps:normal;font-variant-numeric:lining-nums tabular-nums slashed-zero;font-feature-settings:normal;text-align:center" d="M19.348.542a.146.146 0 0 0-.108.042.146.146 0 0 0-.042.108v.54c0 .044.014.08.042.108a.146.146 0 0 0 .108.042h.72c.044 0 .08-.014.108-.042a.146.146 0 0 0 .042-.108v-.54a.146.146 0 0 0-.042-.108.146.146 0 0 0-.108-.042h-.72zm-4.378.15c-.564 0-1.011.138-1.343.414-.313.263-.484.634-.516 1.108l1.112.075c.031-.488.279-.733.747-.733.2 0 .356.044.468.132a.763.763 0 0 1 .246.3.14.14 0 0 0 .06.066.217.217 0 0 0 .096.018h.875a.123.123 0 0 0 .09-.036.113.113 0 0 0 .043-.09 1.014 1.014 0 0 0-.24-.594c-.148-.192-.364-.35-.648-.474a2.428 2.428 0 0 0-.99-.186zm2.67 0a.16.16 0 0 0-.109.042.146.146 0 0 0-.042.108v1.665l1.008.067V.842a.146.146 0 0 0-.042-.108.146.146 0 0 0-.108-.042h-.708zm3.783 0a.16.16 0 0 0-.108.042.146.146 0 0 0-.041.108v.99h-.469a.167.167 0 0 0-.113.041.146.146 0 0 0-.042.108v.486c0 .044.014.08.042.108.032.028.07.042.113.042h.469v.142l.995.066v-.208h.75c.044 0 .08-.014.108-.042a.137.137 0 0 0 .047-.108v-.486a.137.137 0 0 0-.047-.108.146.146 0 0 0-.108-.042h-.75v-.99a.146.146 0 0 0-.042-.107.146.146 0 0 0-.108-.042h-.696zm5.986 0a.16.16 0 0 0-.108.042.146.146 0 0 0-.042.108v2.316l1.067.071v-.066c0-.188.048-.332.144-.432a.54.54 0 0 1 .408-.156c.172 0 .302.052.39.156.091.1.137.244.137.432v.139l1.074.07v-.245c0-.288-.052-.534-.156-.737a1.076 1.076 0 0 0-.432-.462 1.212 1.212 0 0 0-.617-.157c-.392 0-.708.136-.948.408V.842a.146.146 0 0 0-.042-.108.146.146 0 0 0-.108-.042h-.767zm6.825 0c-.564 0-1.012.138-1.344.414-.328.276-.502.668-.522 1.176-.004.115-.006.299-.006.55 0 .253.002.437.006.553.002.04.006.077.01.115l1.135.075a1.347 1.347 0 0 1-.03-.22 16.43 16.43 0 0 1-.005-.522c0-.236.002-.41.006-.522.024-.503.274-.755.75-.755.2 0 .355.044.467.132a.764.764 0 0 1 .246.3.14.14 0 0 0 .06.066.214.214 0 0 0 .096.018h.876a.122.122 0 0 0 .09-.036.113.113 0 0 0 .041-.09 1.014 1.014 0 0 0-.24-.594c-.147-.192-.363-.35-.647-.474a2.426 2.426 0 0 0-.99-.186zm6.206 0a.16.16 0 0 0-.108.042.146.146 0 0 0-.041.108v3.186l1.007.067V.842a.147.147 0 0 0-.042-.108.145.145 0 0 0-.108-.042h-.708zm1.716 0a.16.16 0 0 0-.108.042.146.146 0 0 0-.042.108v3.3l1.007.067V.842a.146.146 0 0 0-.041-.108.146.146 0 0 0-.108-.042h-.708zM4.936.94a.16.16 0 0 0-.107.042.145.145 0 0 0-.042.108v3.958c0 .04.014.076.042.108a.16.16 0 0 0 .108.042h.767c.044 0 .08-.014.108-.042a.146.146 0 0 0 .042-.108V3.412c0-.188.048-.332.144-.432a.54.54 0 0 1 .408-.156c.172 0 .302.052.39.156.092.1.138.244.138.432V5.05c0 .04.014.076.042.108a.16.16 0 0 0 .108.042h.773c.044 0 .08-.014.108-.042a.16.16 0 0 0 .042-.108V3.376c0-.288-.052-.534-.156-.737a1.075 1.075 0 0 0-.431-.462 1.214 1.214 0 0 0-.618-.156c-.392 0-.708.135-.948.407V1.091a.145.145 0 0 0-.15-.15h-.767zm-3.91.06a.16.16 0 0 0-.108.042.145.145 0 0 0-.042.108v.642c0 .04.014.076.042.108a.16.16 0 0 0 .108.042h1.068v3.106c0 .04.014.076.042.108a.16.16 0 0 0 .108.042h.791c.044 0 .08-.014.108-.042a.16.16 0 0 0 .042-.108V1.943h1.068c.044 0 .08-.014.108-.042a.146.146 0 0 0 .042-.108V1.15a.145.145 0 0 0-.042-.108.146.146 0 0 0-.108-.042H1.026zm24.128.77c-.452 0-.82.122-1.104.366a1.275 1.275 0 0 0-.419.78l1.052.07c.055-.293.216-.442.489-.442a.47.47 0 0 1 .281.078c.076.052.138.14.186.264.02.04.042.07.066.09.024.02.058.03.102.03h.762c.044 0 .08-.014.108-.042a.13.13 0 0 0 .042-.108c-.008-.14-.07-.294-.186-.462a1.31 1.31 0 0 0-.522-.437c-.232-.124-.518-.187-.857-.187zm13.014 0c-.308 0-.568.049-.78.145-.208.096-.364.21-.468.341-.1.132-.152.252-.156.36a.122.122 0 0 0 .03.096.151.151 0 0 0 .102.036h.654c.032 0 .054-.016.066-.048a.942.942 0 0 0 .126-.096 1 1 0 0 1 .185-.132.481.481 0 0 1 .228-.048c.152 0 .26.036.324.108.064.072.096.184.096.336v.084l-.75.114c-.395.064-.707.18-.935.348a.81.81 0 0 0-.279.367l.98.065c.077-.103.238-.178.487-.222l.51-.09v.084c0 .11-.015.207-.041.292l1.066.071V2.977c0-.368-.118-.66-.354-.876-.236-.22-.6-.33-1.091-.33zm6.854 0c-.468 0-.841.135-1.121.403-.276.263-.423.631-.439 1.103v.21c.008.297.063.55.165.763l2.76.184c.08-.106.122-.203.122-.287a.098.098 0 0 0-.042-.085.122.122 0 0 0-.09-.035h-.743a.249.249 0 0 0-.108.018.27.27 0 0 0-.084.078.916.916 0 0 1-.174.155.457.457 0 0 1-.246.06.423.423 0 0 1-.366-.173.821.821 0 0 1-.138-.456v-.042h1.92c.043 0 .08-.014.107-.042a.16.16 0 0 0 .042-.108v-.144c0-.312-.06-.588-.18-.828a1.284 1.284 0 0 0-.528-.564c-.232-.14-.517-.21-.857-.21zm-25.668.06a.146.146 0 0 0-.108.042.146.146 0 0 0-.041.108v.64l1.007.067v-.707a.146.146 0 0 0-.042-.108.146.146 0 0 0-.108-.042h-.708zm27.749 0a.146.146 0 0 0-.108.042.146.146 0 0 0-.042.108v2.49l1.05.07V3.266c0-.164.043-.29.131-.378a.519.519 0 0 1 .384-.138h.581c.044 0 .08-.014.108-.042a.16.16 0 0 0 .043-.108v-.618a.147.147 0 0 0-.043-.108.146.146 0 0 0-.108-.042h-.263c-.372 0-.668.13-.888.39v-.24a.13.13 0 0 0-.048-.102.136.136 0 0 0-.108-.048h-.69zm2.482 0a.113.113 0 0 0-.09.042.178.178 0 0 0-.047.09c0 .016.005.04.017.073L50.6 4.715l1.008.067 1.187-2.746a.288.288 0 0 0 .018-.078.108.108 0 0 0-.042-.085.113.113 0 0 0-.09-.042h-.672c-.08 0-.14.043-.18.127l-.701 1.745-.684-1.745c-.032-.084-.09-.127-.174-.127h-.684zm-39.467.19c-.468 0-.841.134-1.121.402-.276.263-.422.631-.438 1.103v.21c.012.495.156.874.432 1.133.276.26.654.39 1.133.39.304 0 .568-.05.792-.15.224-.1.394-.218.51-.354.12-.136.18-.255.18-.36a.097.097 0 0 0-.042-.083.122.122 0 0 0-.09-.036h-.744a.249.249 0 0 0-.108.018.27.27 0 0 0-.084.078.916.916 0 0 1-.174.155.457.457 0 0 1-.246.06.423.423 0 0 1-.366-.173.821.821 0 0 1-.138-.456v-.042h1.92c.044 0 .08-.014.108-.042a.16.16 0 0 0 .042-.108v-.144c0-.312-.06-.588-.18-.828a1.284 1.284 0 0 0-.528-.564c-.232-.14-.518-.21-.858-.21zm34.904.404a.44.44 0 0 1 .372.174c.092.112.138.266.138.462v.012h-1.014v-.012c0-.196.044-.35.132-.462a.45.45 0 0 1 .372-.174zm-30.96.05l-.005.067c-.004.116-.006.3-.006.551 0 .252.002.436.006.552.02.52.192.922.516 1.206.324.28.773.42 1.349.42.38 0 .712-.064.996-.192.288-.132.51-.32.665-.564.156-.248.234-.542.234-.882V2.95a.146.146 0 0 0-.042-.108.137.137 0 0 0-.108-.048h-1.51a.137.137 0 0 0-.109.048.146.146 0 0 0-.042.108v.444c0 .044.014.081.042.113a.146.146 0 0 0 .108.042h.564v.114c0 .252-.072.44-.216.564-.14.12-.328.18-.564.18-.488 0-.744-.264-.768-.792a16.78 16.78 0 0 1-.005-.522c0-.236.001-.41.005-.521 0-.008.002-.015.003-.023l-1.113-.074zm20.405.058a.137.137 0 0 0-.108.048.146.146 0 0 0-.042.108v.444c0 .044.014.082.042.114a.146.146 0 0 0 .108.042h.564v.114c0 .102-.015.19-.038.271l1.096.073a1.89 1.89 0 0 0 .04-.374v-.684a.146.146 0 0 0-.042-.108.137.137 0 0 0-.108-.048h-1.512zm-24.349.141a.44.44 0 0 1 .372.174c.092.112.138.266.138.462v.012H9.614V3.31c0-.196.044-.35.132-.462a.45.45 0 0 1 .372-.174zm8.323.093V5.06c0 .04.014.076.042.108a.158.158 0 0 0 .108.042h.708c.044 0 .08-.014.108-.042a.146.146 0 0 0 .041-.108V2.834l-1.007-.067zm1.715.114v2.18c0 .044.014.08.042.108a.146.146 0 0 0 .108.042h.708c.044 0 .08-.014.108-.042a.16.16 0 0 0 .042-.108V2.949l-1.008-.068zm2.069.138v1.01c0 .788.414 1.182 1.242 1.182h.557c.044 0 .08-.014.108-.042a.16.16 0 0 0 .042-.108v-.522a.146.146 0 0 0-.042-.108.146.146 0 0 0-.108-.042h-.462c-.228 0-.341-.148-.341-.444v-.86l-.996-.066zm2.358.158a1.82 1.82 0 0 0-.025.234l-.006.246.006.24c.02.432.17.77.45 1.014.28.24.646.36 1.097.36.352 0 .646-.064.882-.192.236-.132.408-.284.516-.456.112-.172.168-.322.168-.45a.114.114 0 0 0-.048-.096.138.138 0 0 0-.102-.042h-.762a.155.155 0 0 0-.102.03.276.276 0 0 0-.066.09.536.536 0 0 1-.174.264.492.492 0 0 1-.294.078.47.47 0 0 1-.372-.15c-.084-.104-.13-.264-.138-.48l-.005-.198.005-.228c.002-.071.01-.135.022-.194l-1.052-.07zm3.627.241v1.643c0 .04.015.076.043.108a.16.16 0 0 0 .108.042h.767c.044 0 .08-.014.108-.042a.146.146 0 0 0 .042-.108V3.49l-1.068-.072zm2.147.144v1.499c0 .04.014.076.042.108a.16.16 0 0 0 .108.042h.774c.044 0 .08-.014.108-.042a.16.16 0 0 0 .042-.108V3.633l-1.074-.07zm2.972.198c.04.464.207.828.507 1.09.324.28.773.42 1.349.42.38 0 .712-.063.996-.191.288-.132.51-.32.665-.564.095-.151.158-.322.195-.507l-1.097-.073a.593.593 0 0 1-.177.292c-.14.12-.328.18-.564.18-.413 0-.658-.192-.738-.571l-1.136-.076zm4.234.283a.832.832 0 0 0 .087.772c.1.14.236.252.408.336.176.08.37.12.582.12.215 0 .401-.038.557-.114a.984.984 0 0 0 .372-.306v.21c0 .04.014.076.042.108a.16.16 0 0 0 .108.042h.696c.044 0 .08-.014.108-.042a.16.16 0 0 0 .041-.108v-.818L39.5 4.172a.579.579 0 0 1-.578.415.537.537 0 0 1-.305-.084.282.282 0 0 1-.126-.24c0-.058.019-.11.053-.155l-.98-.065zm3.68.245v.773c0 .04.013.076.041.108a.16.16 0 0 0 .108.042h.708c.044 0 .08-.014.108-.042a.146.146 0 0 0 .042-.108v-.706l-1.008-.067zm1.715.114v.659c0 .04.013.076.041.108a.16.16 0 0 0 .108.042h.708c.044 0 .08-.014.108-.042a.146.146 0 0 0 .042-.108v-.592l-1.007-.067zm1.621.108c.068.142.157.267.267.37.276.26.654.39 1.134.39.303 0 .567-.05.791-.15.224-.1.394-.217.51-.353.022-.025.04-.049.058-.073l-2.76-.184zm3.326.222v.329c0 .044.013.08.041.108a.146.146 0 0 0 .108.042h.744c.044 0 .08-.014.108-.042a.137.137 0 0 0 .048-.108v-.259l-1.05-.07zm3.645.243l.018.043-.467 1.128a.172.172 0 0 0-.018.078c0 .036.012.066.036.09a.122.122 0 0 0 .09.036h.66c.088 0 .148-.042.18-.126l.51-1.181-1.009-.068z" font-family="Rubik" fill="#111"/></g></svg>